<mxfile host="65bd71144e">
    <diagram id="dK9tvj5l9Hu4B9UrkfzS" name="Page-1">
        <mxGraphModel dx="1519" dy="201" grid="1" gridSize="10" guides="1" tooltips="1" connect="1" arrows="1" fold="1" page="1" pageScale="1" pageWidth="1169" pageHeight="827" math="0" shadow="0">
            <root>
                <mxCell id="0"/>
                <mxCell id="1" parent="0"/>
                <mxCell id="IvrfVeuGX-2x-bHtq6-g-1" value="Diagramme d'activité" style="shape=umlFrame;whiteSpace=wrap;html=1;width=110;height=30;" parent="1" vertex="1">
                    <mxGeometry x="10" y="10" width="190" height="110" as="geometry"/>
                </mxCell>
                <mxCell id="IvrfVeuGX-2x-bHtq6-g-2" value="Apprenant" style="text;align=center;fontStyle=1;verticalAlign=middle;spacingLeft=3;spacingRight=3;strokeColor=none;rotatable=0;points=[[0,0.5],[1,0.5]];portConstraint=eastwest;" parent="1" vertex="1">
                    <mxGeometry x="94.97" y="60" width="80" height="26" as="geometry"/>
                </mxCell>
                <mxCell id="IvrfVeuGX-2x-bHtq6-g-3" value="" style="ellipse;html=1;shape=startState;fillColor=#000000;strokeColor=#ff0000;" parent="1" vertex="1">
                    <mxGeometry x="550" y="60" width="30" height="30" as="geometry"/>
                </mxCell>
                <mxCell id="IvrfVeuGX-2x-bHtq6-g-4" value="" style="edgeStyle=orthogonalEdgeStyle;html=1;verticalAlign=bottom;endArrow=open;endSize=8;strokeColor=#ff0000;rounded=0;entryX=0.5;entryY=0;entryDx=0;entryDy=0;" parent="1" source="IvrfVeuGX-2x-bHtq6-g-3" target="IvrfVeuGX-2x-bHtq6-g-7" edge="1">
                    <mxGeometry relative="1" as="geometry">
                        <mxPoint x="570" y="150" as="targetPoint"/>
                    </mxGeometry>
                </mxCell>
                <mxCell id="IvrfVeuGX-2x-bHtq6-g-9" style="edgeStyle=orthogonalEdgeStyle;rounded=0;orthogonalLoop=1;jettySize=auto;html=1;exitX=1;exitY=0.5;exitDx=0;exitDy=0;entryX=0;entryY=0.5;entryDx=0;entryDy=0;" parent="1" source="IvrfVeuGX-2x-bHtq6-g-7" target="IvrfVeuGX-2x-bHtq6-g-8" edge="1">
                    <mxGeometry relative="1" as="geometry"/>
                </mxCell>
                <mxCell id="IvrfVeuGX-2x-bHtq6-g-11" style="edgeStyle=orthogonalEdgeStyle;rounded=0;orthogonalLoop=1;jettySize=auto;html=1;exitX=0.5;exitY=1;exitDx=0;exitDy=0;" parent="1" source="IvrfVeuGX-2x-bHtq6-g-7" target="IvrfVeuGX-2x-bHtq6-g-10" edge="1">
                    <mxGeometry relative="1" as="geometry"/>
                </mxCell>
                <mxCell id="IvrfVeuGX-2x-bHtq6-g-7" value="si apprenant" style="rhombus;whiteSpace=wrap;html=1;" parent="1" vertex="1">
                    <mxGeometry x="505" y="150" width="120" height="120" as="geometry"/>
                </mxCell>
                <mxCell id="IvrfVeuGX-2x-bHtq6-g-8" value="" style="ellipse;html=1;shape=endState;fillColor=#000000;strokeColor=#ff0000;" parent="1" vertex="1">
                    <mxGeometry x="720" y="195" width="30" height="30" as="geometry"/>
                </mxCell>
                <mxCell id="IvrfVeuGX-2x-bHtq6-g-13" style="edgeStyle=orthogonalEdgeStyle;rounded=0;orthogonalLoop=1;jettySize=auto;html=1;exitX=0.5;exitY=1;exitDx=0;exitDy=0;entryX=0.5;entryY=0;entryDx=0;entryDy=0;" parent="1" source="IvrfVeuGX-2x-bHtq6-g-10" target="IvrfVeuGX-2x-bHtq6-g-12" edge="1">
                    <mxGeometry relative="1" as="geometry"/>
                </mxCell>
                <mxCell id="IvrfVeuGX-2x-bHtq6-g-10" value="Affiche le dashboard utilisateur" style="rounded=1;whiteSpace=wrap;html=1;" parent="1" vertex="1">
                    <mxGeometry x="465" y="330" width="200" height="100" as="geometry"/>
                </mxCell>
                <mxCell id="IvrfVeuGX-2x-bHtq6-g-15" style="edgeStyle=orthogonalEdgeStyle;rounded=0;orthogonalLoop=1;jettySize=auto;html=1;exitX=0.5;exitY=1;exitDx=0;exitDy=0;entryX=0.5;entryY=0;entryDx=0;entryDy=0;" parent="1" source="IvrfVeuGX-2x-bHtq6-g-12" target="IvrfVeuGX-2x-bHtq6-g-14" edge="1">
                    <mxGeometry relative="1" as="geometry"/>
                </mxCell>
                <mxCell id="IvrfVeuGX-2x-bHtq6-g-21" style="edgeStyle=orthogonalEdgeStyle;rounded=0;orthogonalLoop=1;jettySize=auto;html=1;exitX=1;exitY=0.5;exitDx=0;exitDy=0;entryX=0.5;entryY=0;entryDx=0;entryDy=0;" parent="1" source="IvrfVeuGX-2x-bHtq6-g-12" target="2" edge="1">
                    <mxGeometry relative="1" as="geometry">
                        <mxPoint x="1250" y="620" as="targetPoint"/>
                    </mxGeometry>
                </mxCell>
                <mxCell id="uCB6otb3zmAJfKVbCcx5-29" style="edgeStyle=orthogonalEdgeStyle;rounded=0;orthogonalLoop=1;jettySize=auto;html=1;exitX=0;exitY=0.5;exitDx=0;exitDy=0;entryX=1;entryY=0.5;entryDx=0;entryDy=0;strokeColor=#000000;" parent="1" source="IvrfVeuGX-2x-bHtq6-g-12" target="uCB6otb3zmAJfKVbCcx5-1" edge="1">
                    <mxGeometry relative="1" as="geometry"/>
                </mxCell>
                <mxCell id="IvrfVeuGX-2x-bHtq6-g-12" value="Afficher" style="rhombus;whiteSpace=wrap;html=1;fillColor=#fff2cc;strokeColor=#d6b656;" parent="1" vertex="1">
                    <mxGeometry x="500" y="490" width="130" height="180" as="geometry"/>
                </mxCell>
                <mxCell id="IvrfVeuGX-2x-bHtq6-g-17" style="edgeStyle=orthogonalEdgeStyle;rounded=0;orthogonalLoop=1;jettySize=auto;html=1;exitX=0.5;exitY=1;exitDx=0;exitDy=0;entryX=0.5;entryY=0;entryDx=0;entryDy=0;" parent="1" source="IvrfVeuGX-2x-bHtq6-g-14" target="IvrfVeuGX-2x-bHtq6-g-16" edge="1">
                    <mxGeometry relative="1" as="geometry"/>
                </mxCell>
                <mxCell id="IvrfVeuGX-2x-bHtq6-g-14" value="Déconnection" style="rounded=1;whiteSpace=wrap;html=1;" parent="1" vertex="1">
                    <mxGeometry x="505" y="730" width="120" height="60" as="geometry"/>
                </mxCell>
                <mxCell id="IvrfVeuGX-2x-bHtq6-g-16" value="" style="ellipse;html=1;shape=endState;fillColor=#000000;strokeColor=#ff0000;" parent="1" vertex="1">
                    <mxGeometry x="550" y="880" width="30" height="30" as="geometry"/>
                </mxCell>
                <mxCell id="IvrfVeuGX-2x-bHtq6-g-162" style="edgeStyle=orthogonalEdgeStyle;rounded=0;orthogonalLoop=1;jettySize=auto;html=1;entryX=0.5;entryY=0;entryDx=0;entryDy=0;" parent="1" target="IvrfVeuGX-2x-bHtq6-g-161" edge="1">
                    <mxGeometry relative="1" as="geometry">
                        <mxPoint x="-280" y="750" as="sourcePoint"/>
                    </mxGeometry>
                </mxCell>
                <mxCell id="IvrfVeuGX-2x-bHtq6-g-28" style="edgeStyle=orthogonalEdgeStyle;rounded=0;orthogonalLoop=1;jettySize=auto;html=1;exitX=0.469;exitY=0.989;exitDx=0;exitDy=0;entryX=0.5;entryY=0;entryDx=0;entryDy=0;exitPerimeter=0;" parent="1" source="2" target="IvrfVeuGX-2x-bHtq6-g-22" edge="1">
                    <mxGeometry relative="1" as="geometry">
                        <mxPoint x="1250" y="720" as="sourcePoint"/>
                        <Array as="points">
                            <mxPoint x="1250" y="740"/>
                            <mxPoint x="995" y="740"/>
                        </Array>
                    </mxGeometry>
                </mxCell>
                <mxCell id="uCB6otb3zmAJfKVbCcx5-131" style="edgeStyle=orthogonalEdgeStyle;rounded=0;orthogonalLoop=1;jettySize=auto;html=1;exitX=1;exitY=0.5;exitDx=0;exitDy=0;fontSize=12;strokeColor=#FF6666;" parent="1" edge="1">
                    <mxGeometry relative="1" as="geometry">
                        <mxPoint x="1349.7647058823532" y="669.6470588235295" as="targetPoint"/>
                        <mxPoint x="1350" y="670" as="sourcePoint"/>
                    </mxGeometry>
                </mxCell>
                <mxCell id="IvrfVeuGX-2x-bHtq6-g-41" style="edgeStyle=orthogonalEdgeStyle;rounded=0;orthogonalLoop=1;jettySize=auto;html=1;exitX=1;exitY=1;exitDx=0;exitDy=0;entryX=0;entryY=0.5;entryDx=0;entryDy=0;" parent="1" source="IvrfVeuGX-2x-bHtq6-g-22" target="IvrfVeuGX-2x-bHtq6-g-23" edge="1">
                    <mxGeometry relative="1" as="geometry">
                        <mxPoint x="1650" y="1875" as="sourcePoint"/>
                        <Array as="points">
                            <mxPoint x="1022" y="900"/>
                            <mxPoint x="1160" y="900"/>
                            <mxPoint x="1160" y="1865"/>
                        </Array>
                    </mxGeometry>
                </mxCell>
                <mxCell id="uCB6otb3zmAJfKVbCcx5-45" style="edgeStyle=orthogonalEdgeStyle;rounded=0;orthogonalLoop=1;jettySize=auto;html=1;exitX=0.5;exitY=1;exitDx=0;exitDy=0;strokeColor=#000000;" parent="1" source="IvrfVeuGX-2x-bHtq6-g-22" target="uCB6otb3zmAJfKVbCcx5-39" edge="1">
                    <mxGeometry relative="1" as="geometry"/>
                </mxCell>
                <mxCell id="tfg6szfgYwZAn6ZmmZ_o-2" style="edgeStyle=orthogonalEdgeStyle;rounded=0;orthogonalLoop=1;jettySize=auto;html=1;exitX=0;exitY=0;exitDx=0;exitDy=0;entryX=0.5;entryY=1;entryDx=0;entryDy=0;" parent="1" source="IvrfVeuGX-2x-bHtq6-g-22" target="tfg6szfgYwZAn6ZmmZ_o-1" edge="1">
                    <mxGeometry relative="1" as="geometry"/>
                </mxCell>
                <mxCell id="IvrfVeuGX-2x-bHtq6-g-22" value="Pouvoir" style="rhombus;whiteSpace=wrap;html=1;" parent="1" vertex="1">
                    <mxGeometry x="940" y="820" width="110" height="110" as="geometry"/>
                </mxCell>
                <mxCell id="IvrfVeuGX-2x-bHtq6-g-42" style="edgeStyle=orthogonalEdgeStyle;rounded=0;orthogonalLoop=1;jettySize=auto;html=1;exitX=0.5;exitY=0;exitDx=0;exitDy=0;entryX=0.5;entryY=1;entryDx=0;entryDy=0;" parent="1" source="IvrfVeuGX-2x-bHtq6-g-23" target="IvrfVeuGX-2x-bHtq6-g-31" edge="1">
                    <mxGeometry relative="1" as="geometry"/>
                </mxCell>
                <mxCell id="IvrfVeuGX-2x-bHtq6-g-121" style="edgeStyle=orthogonalEdgeStyle;rounded=0;orthogonalLoop=1;jettySize=auto;html=1;exitX=0;exitY=0;exitDx=0;exitDy=0;entryX=0.5;entryY=1;entryDx=0;entryDy=0;" parent="1" source="IvrfVeuGX-2x-bHtq6-g-23" target="IvrfVeuGX-2x-bHtq6-g-34" edge="1">
                    <mxGeometry relative="1" as="geometry"/>
                </mxCell>
                <mxCell id="IvrfVeuGX-2x-bHtq6-g-23" value="Afficher" style="rhombus;whiteSpace=wrap;html=1;" parent="1" vertex="1">
                    <mxGeometry x="2705" y="1810" width="110" height="110" as="geometry"/>
                </mxCell>
                <mxCell id="uCB6otb3zmAJfKVbCcx5-43" style="edgeStyle=orthogonalEdgeStyle;rounded=0;orthogonalLoop=1;jettySize=auto;html=1;exitX=0.5;exitY=1;exitDx=0;exitDy=0;strokeColor=#000000;" parent="1" source="IvrfVeuGX-2x-bHtq6-g-24" target="ED3J-dWW6mjkObuf-_qW-1" edge="1">
                    <mxGeometry relative="1" as="geometry"/>
                </mxCell>
                <mxCell id="IvrfVeuGX-2x-bHtq6-g-24" value="&#10;&lt;span style=&quot;color: rgb(0, 0, 0); font-family: Helvetica; font-size: 12px; font-style: normal; font-variant-ligatures: normal; font-variant-caps: normal; font-weight: 400; letter-spacing: normal; orphans: 2; text-align: center; text-indent: 0px; text-transform: none; widows: 2; word-spacing: 0px; -webkit-text-stroke-width: 0px; background-color: rgb(248, 249, 250); text-decoration-thickness: initial; text-decoration-style: initial; text-decoration-color: initial; float: none; display: inline !important;&quot;&gt;Attacher des documents à mon profil&lt;/span&gt;&#10;&#10;" style="rounded=1;whiteSpace=wrap;html=1;" parent="1" vertex="1">
                    <mxGeometry x="850" y="1230" width="120" height="60" as="geometry"/>
                </mxCell>
                <mxCell id="uCB6otb3zmAJfKVbCcx5-44" style="edgeStyle=orthogonalEdgeStyle;rounded=0;orthogonalLoop=1;jettySize=auto;html=1;exitX=0.5;exitY=1;exitDx=0;exitDy=0;strokeColor=#97D077;entryX=1;entryY=0.5;entryDx=0;entryDy=0;startArrow=none;" parent="1" source="ED3J-dWW6mjkObuf-_qW-13" target="IvrfVeuGX-2x-bHtq6-g-47" edge="1">
                    <mxGeometry relative="1" as="geometry"/>
                </mxCell>
                <mxCell id="ED3J-dWW6mjkObuf-_qW-15" style="edgeStyle=orthogonalEdgeStyle;rounded=0;orthogonalLoop=1;jettySize=auto;html=1;exitX=0.5;exitY=1;exitDx=0;exitDy=0;entryX=0.5;entryY=0;entryDx=0;entryDy=0;strokeColor=#000000;" parent="1" source="IvrfVeuGX-2x-bHtq6-g-25" target="ED3J-dWW6mjkObuf-_qW-13" edge="1">
                    <mxGeometry relative="1" as="geometry"/>
                </mxCell>
                <mxCell id="IvrfVeuGX-2x-bHtq6-g-25" value="&#10;&lt;span style=&quot;color: rgb(0, 0, 0); font-family: Helvetica; font-size: 12px; font-style: normal; font-variant-ligatures: normal; font-variant-caps: normal; font-weight: 400; letter-spacing: normal; orphans: 2; text-align: center; text-indent: 0px; text-transform: none; widows: 2; word-spacing: 0px; -webkit-text-stroke-width: 0px; background-color: rgb(248, 249, 250); text-decoration-thickness: initial; text-decoration-style: initial; text-decoration-color: initial; float: none; display: inline !important;&quot;&gt;Mettre à jour mon profil&lt;/span&gt;&#10;&#10;" style="rounded=1;whiteSpace=wrap;html=1;" parent="1" vertex="1">
                    <mxGeometry x="1000" y="1230" width="120" height="60" as="geometry"/>
                </mxCell>
                <mxCell id="IvrfVeuGX-2x-bHtq6-g-52" style="edgeStyle=orthogonalEdgeStyle;rounded=0;orthogonalLoop=1;jettySize=auto;html=1;exitX=1;exitY=0.5;exitDx=0;exitDy=0;entryX=0;entryY=0.5;entryDx=0;entryDy=0;" parent="1" source="IvrfVeuGX-2x-bHtq6-g-30" target="IvrfVeuGX-2x-bHtq6-g-51" edge="1">
                    <mxGeometry relative="1" as="geometry"/>
                </mxCell>
                <mxCell id="IvrfVeuGX-2x-bHtq6-g-58" style="edgeStyle=orthogonalEdgeStyle;rounded=0;orthogonalLoop=1;jettySize=auto;html=1;entryX=0.5;entryY=1;entryDx=0;entryDy=0;" parent="1" source="IvrfVeuGX-2x-bHtq6-g-30" target="IvrfVeuGX-2x-bHtq6-g-54" edge="1">
                    <mxGeometry relative="1" as="geometry"/>
                </mxCell>
                <mxCell id="IvrfVeuGX-2x-bHtq6-g-30" value="Mes candidatures de demande de stage" style="rounded=1;whiteSpace=wrap;html=1;fillColor=#f5f5f5;fontColor=#333333;strokeColor=#666666;" parent="1" vertex="1">
                    <mxGeometry x="2660" y="1485" width="200" height="100" as="geometry"/>
                </mxCell>
                <mxCell id="IvrfVeuGX-2x-bHtq6-g-43" style="edgeStyle=orthogonalEdgeStyle;rounded=0;orthogonalLoop=1;jettySize=auto;html=1;exitX=0.5;exitY=0;exitDx=0;exitDy=0;entryX=0.5;entryY=1;entryDx=0;entryDy=0;strokeColor=#97D077;" parent="1" source="IvrfVeuGX-2x-bHtq6-g-31" target="IvrfVeuGX-2x-bHtq6-g-30" edge="1">
                    <mxGeometry relative="1" as="geometry"/>
                </mxCell>
                <mxCell id="IvrfVeuGX-2x-bHtq6-g-141" style="edgeStyle=orthogonalEdgeStyle;rounded=0;orthogonalLoop=1;jettySize=auto;html=1;exitX=1;exitY=0.5;exitDx=0;exitDy=0;strokeColor=#FF6666;" parent="1" source="IvrfVeuGX-2x-bHtq6-g-31" edge="1">
                    <mxGeometry relative="1" as="geometry">
                        <mxPoint x="3480" y="1490" as="targetPoint"/>
                        <Array as="points">
                            <mxPoint x="3480" y="1700"/>
                            <mxPoint x="3480" y="1530"/>
                        </Array>
                    </mxGeometry>
                </mxCell>
                <mxCell id="IvrfVeuGX-2x-bHtq6-g-31" value="Si exist" style="rhombus;whiteSpace=wrap;html=1;" parent="1" vertex="1">
                    <mxGeometry x="2705" y="1645" width="110" height="110" as="geometry"/>
                </mxCell>
                <mxCell id="IvrfVeuGX-2x-bHtq6-g-124" style="edgeStyle=orthogonalEdgeStyle;rounded=0;orthogonalLoop=1;jettySize=auto;html=1;exitX=0.5;exitY=0;exitDx=0;exitDy=0;entryX=1;entryY=0.5;entryDx=0;entryDy=0;strokeColor=#97D077;" parent="1" source="IvrfVeuGX-2x-bHtq6-g-34" target="IvrfVeuGX-2x-bHtq6-g-36" edge="1">
                    <mxGeometry relative="1" as="geometry"/>
                </mxCell>
                <mxCell id="uCB6otb3zmAJfKVbCcx5-49" style="edgeStyle=orthogonalEdgeStyle;rounded=0;orthogonalLoop=1;jettySize=auto;html=1;exitX=0;exitY=0.5;exitDx=0;exitDy=0;entryX=1;entryY=0;entryDx=0;entryDy=0;strokeColor=#FF6666;" parent="1" source="IvrfVeuGX-2x-bHtq6-g-34" target="IvrfVeuGX-2x-bHtq6-g-22" edge="1">
                    <mxGeometry relative="1" as="geometry">
                        <Array as="points">
                            <mxPoint x="1250" y="1675"/>
                            <mxPoint x="1250" y="850"/>
                            <mxPoint x="1022" y="850"/>
                        </Array>
                    </mxGeometry>
                </mxCell>
                <mxCell id="IvrfVeuGX-2x-bHtq6-g-34" value="Si exist" style="rhombus;whiteSpace=wrap;html=1;" parent="1" vertex="1">
                    <mxGeometry x="2395" y="1620" width="110" height="110" as="geometry"/>
                </mxCell>
                <mxCell id="IvrfVeuGX-2x-bHtq6-g-127" style="edgeStyle=orthogonalEdgeStyle;rounded=0;orthogonalLoop=1;jettySize=auto;html=1;exitX=0.5;exitY=0;exitDx=0;exitDy=0;entryX=0.5;entryY=1;entryDx=0;entryDy=0;" parent="1" source="IvrfVeuGX-2x-bHtq6-g-36" target="IvrfVeuGX-2x-bHtq6-g-93" edge="1">
                    <mxGeometry relative="1" as="geometry"/>
                </mxCell>
                <mxCell id="IvrfVeuGX-2x-bHtq6-g-36" value="Mon stage" style="rounded=1;whiteSpace=wrap;html=1;fillColor=#f5f5f5;fontColor=#333333;strokeColor=#666666;" parent="1" vertex="1">
                    <mxGeometry x="1540" y="1530" width="200" height="100" as="geometry"/>
                </mxCell>
                <mxCell id="IvrfVeuGX-2x-bHtq6-g-47" value="Valider" style="rounded=1;whiteSpace=wrap;html=1;" parent="1" vertex="1">
                    <mxGeometry x="930" y="1437.5" width="100" height="40" as="geometry"/>
                </mxCell>
                <mxCell id="IvrfVeuGX-2x-bHtq6-g-158" style="edgeStyle=orthogonalEdgeStyle;rounded=0;orthogonalLoop=1;jettySize=auto;html=1;entryX=1;entryY=0.25;entryDx=0;entryDy=0;exitX=1;exitY=0.5;exitDx=0;exitDy=0;strokeColor=#FF6666;" parent="1" source="uCB6otb3zmAJfKVbCcx5-51" target="2" edge="1">
                    <mxGeometry relative="1" as="geometry">
                        <Array as="points">
                            <mxPoint x="3480" y="1535"/>
                            <mxPoint x="3480" y="655"/>
                        </Array>
                        <mxPoint x="3250" y="1535" as="sourcePoint"/>
                        <mxPoint x="1350" y="670" as="targetPoint"/>
                    </mxGeometry>
                </mxCell>
                <mxCell id="uCB6otb3zmAJfKVbCcx5-54" style="edgeStyle=orthogonalEdgeStyle;rounded=0;orthogonalLoop=1;jettySize=auto;html=1;exitX=1;exitY=0.5;exitDx=0;exitDy=0;entryX=0;entryY=0.5;entryDx=0;entryDy=0;strokeColor=#000000;" parent="1" source="IvrfVeuGX-2x-bHtq6-g-51" target="uCB6otb3zmAJfKVbCcx5-51" edge="1">
                    <mxGeometry relative="1" as="geometry"/>
                </mxCell>
                <mxCell id="IvrfVeuGX-2x-bHtq6-g-51" value="Afficher" style="rhombus;whiteSpace=wrap;html=1;" parent="1" vertex="1">
                    <mxGeometry x="2920" y="1477.5" width="115" height="115" as="geometry"/>
                </mxCell>
                <mxCell id="uCB6otb3zmAJfKVbCcx5-75" style="edgeStyle=orthogonalEdgeStyle;rounded=0;orthogonalLoop=1;jettySize=auto;html=1;fontSize=12;strokeColor=#000000;entryX=1;entryY=0.5;entryDx=0;entryDy=0;exitX=0;exitY=0.5;exitDx=0;exitDy=0;" parent="1" source="IvrfVeuGX-2x-bHtq6-g-54" target="uCB6otb3zmAJfKVbCcx5-73" edge="1">
                    <mxGeometry relative="1" as="geometry"/>
                </mxCell>
                <mxCell id="uCB6otb3zmAJfKVbCcx5-81" style="edgeStyle=orthogonalEdgeStyle;rounded=0;orthogonalLoop=1;jettySize=auto;html=1;exitX=0.136;exitY=0.364;exitDx=0;exitDy=0;fontSize=12;strokeColor=#000000;exitPerimeter=0;" parent="1" source="IvrfVeuGX-2x-bHtq6-g-54" target="uCB6otb3zmAJfKVbCcx5-80" edge="1">
                    <mxGeometry relative="1" as="geometry">
                        <Array as="points">
                            <mxPoint x="2700" y="1260"/>
                            <mxPoint x="2700" y="1220"/>
                            <mxPoint x="2430" y="1220"/>
                        </Array>
                    </mxGeometry>
                </mxCell>
                <mxCell id="uCB6otb3zmAJfKVbCcx5-91" style="edgeStyle=orthogonalEdgeStyle;rounded=0;orthogonalLoop=1;jettySize=auto;html=1;entryX=0.5;entryY=1;entryDx=0;entryDy=0;fontSize=12;strokeColor=#000000;exitX=0.634;exitY=0.121;exitDx=0;exitDy=0;exitPerimeter=0;" parent="1" source="IvrfVeuGX-2x-bHtq6-g-54" target="uCB6otb3zmAJfKVbCcx5-90" edge="1">
                    <mxGeometry relative="1" as="geometry"/>
                </mxCell>
                <mxCell id="uCB6otb3zmAJfKVbCcx5-100" style="edgeStyle=orthogonalEdgeStyle;rounded=0;orthogonalLoop=1;jettySize=auto;html=1;entryX=0.5;entryY=1;entryDx=0;entryDy=0;fontSize=12;strokeColor=#000000;exitX=1;exitY=0;exitDx=0;exitDy=0;" parent="1" source="IvrfVeuGX-2x-bHtq6-g-54" target="uCB6otb3zmAJfKVbCcx5-98" edge="1">
                    <mxGeometry relative="1" as="geometry"/>
                </mxCell>
                <mxCell id="uCB6otb3zmAJfKVbCcx5-104" style="edgeStyle=orthogonalEdgeStyle;rounded=0;orthogonalLoop=1;jettySize=auto;html=1;exitX=0.906;exitY=0.394;exitDx=0;exitDy=0;entryX=0.5;entryY=1;entryDx=0;entryDy=0;fontSize=12;strokeColor=#000000;exitPerimeter=0;" parent="1" source="IvrfVeuGX-2x-bHtq6-g-54" target="uCB6otb3zmAJfKVbCcx5-99" edge="1">
                    <mxGeometry relative="1" as="geometry"/>
                </mxCell>
                <mxCell id="uCB6otb3zmAJfKVbCcx5-105" style="edgeStyle=orthogonalEdgeStyle;rounded=0;orthogonalLoop=1;jettySize=auto;html=1;entryX=0.5;entryY=1;entryDx=0;entryDy=0;fontSize=12;strokeColor=#000000;exitX=0.368;exitY=0.121;exitDx=0;exitDy=0;exitPerimeter=0;" parent="1" source="IvrfVeuGX-2x-bHtq6-g-54" target="uCB6otb3zmAJfKVbCcx5-84" edge="1">
                    <mxGeometry relative="1" as="geometry">
                        <Array as="points">
                            <mxPoint x="2730" y="1200"/>
                            <mxPoint x="2600" y="1200"/>
                        </Array>
                    </mxGeometry>
                </mxCell>
                <mxCell id="IvrfVeuGX-2x-bHtq6-g-54" value="Pouvoir" style="rhombus;whiteSpace=wrap;html=1;" parent="1" vertex="1">
                    <mxGeometry x="2685" y="1220" width="110" height="110" as="geometry"/>
                </mxCell>
                <mxCell id="uCB6otb3zmAJfKVbCcx5-111" style="edgeStyle=orthogonalEdgeStyle;rounded=0;orthogonalLoop=1;jettySize=auto;html=1;exitX=0.5;exitY=0;exitDx=0;exitDy=0;entryX=0.5;entryY=1;entryDx=0;entryDy=0;fontSize=12;strokeColor=#000000;" parent="1" source="IvrfVeuGX-2x-bHtq6-g-59" target="IvrfVeuGX-2x-bHtq6-g-61" edge="1">
                    <mxGeometry relative="1" as="geometry"/>
                </mxCell>
                <mxCell id="IvrfVeuGX-2x-bHtq6-g-59" value="Le detail de la candidature" style="rounded=1;whiteSpace=wrap;html=1;fontSize=12;" parent="1" vertex="1">
                    <mxGeometry x="3202" y="1350" width="206" height="103" as="geometry"/>
                </mxCell>
                <mxCell id="IvrfVeuGX-2x-bHtq6-g-63" style="edgeStyle=orthogonalEdgeStyle;rounded=0;orthogonalLoop=1;jettySize=auto;html=1;exitX=0;exitY=0.5;exitDx=0;exitDy=0;entryX=1;entryY=0.5;entryDx=0;entryDy=0;" parent="1" source="IvrfVeuGX-2x-bHtq6-g-61" target="IvrfVeuGX-2x-bHtq6-g-54" edge="1">
                    <mxGeometry relative="1" as="geometry"/>
                </mxCell>
                <mxCell id="uCB6otb3zmAJfKVbCcx5-117" style="edgeStyle=orthogonalEdgeStyle;rounded=0;orthogonalLoop=1;jettySize=auto;html=1;exitX=0.5;exitY=0;exitDx=0;exitDy=0;entryX=0.5;entryY=1;entryDx=0;entryDy=0;fontSize=12;strokeColor=#000000;" parent="1" source="IvrfVeuGX-2x-bHtq6-g-61" target="uCB6otb3zmAJfKVbCcx5-112" edge="1">
                    <mxGeometry relative="1" as="geometry"/>
                </mxCell>
                <mxCell id="IvrfVeuGX-2x-bHtq6-g-61" value="Consulte" style="rhombus;whiteSpace=wrap;html=1;" parent="1" vertex="1">
                    <mxGeometry x="3250" y="1220" width="110" height="110" as="geometry"/>
                </mxCell>
                <mxCell id="IvrfVeuGX-2x-bHtq6-g-213" style="edgeStyle=orthogonalEdgeStyle;rounded=0;orthogonalLoop=1;jettySize=auto;html=1;exitX=0.5;exitY=0;exitDx=0;exitDy=0;entryX=0.5;entryY=1;entryDx=0;entryDy=0;" parent="1" source="IvrfVeuGX-2x-bHtq6-g-64" target="IvrfVeuGX-2x-bHtq6-g-211" edge="1">
                    <mxGeometry relative="1" as="geometry"/>
                </mxCell>
                <mxCell id="IvrfVeuGX-2x-bHtq6-g-64" value="Consulter le statut de la candidature" style="rounded=1;whiteSpace=wrap;html=1;" parent="1" vertex="1">
                    <mxGeometry x="3040" y="910" width="160" height="80" as="geometry"/>
                </mxCell>
                <mxCell id="ED3J-dWW6mjkObuf-_qW-37" style="edgeStyle=orthogonalEdgeStyle;rounded=0;orthogonalLoop=1;jettySize=auto;html=1;exitX=0.5;exitY=0;exitDx=0;exitDy=0;entryX=0;entryY=0.5;entryDx=0;entryDy=0;strokeColor=#000000;" parent="1" source="IvrfVeuGX-2x-bHtq6-g-66" target="ED3J-dWW6mjkObuf-_qW-32" edge="1">
                    <mxGeometry relative="1" as="geometry"/>
                </mxCell>
                <mxCell id="IvrfVeuGX-2x-bHtq6-g-66" value="Supprimer de son dashboard les candidature refusé" style="rounded=1;whiteSpace=wrap;html=1;" parent="1" vertex="1">
                    <mxGeometry x="2355" y="917.5" width="150" height="75" as="geometry"/>
                </mxCell>
                <mxCell id="ED3J-dWW6mjkObuf-_qW-38" style="edgeStyle=orthogonalEdgeStyle;rounded=0;orthogonalLoop=1;jettySize=auto;html=1;entryX=0.17;entryY=0.701;entryDx=0;entryDy=0;strokeColor=#000000;entryPerimeter=0;" parent="1" source="IvrfVeuGX-2x-bHtq6-g-68" target="ED3J-dWW6mjkObuf-_qW-32" edge="1">
                    <mxGeometry relative="1" as="geometry"/>
                </mxCell>
                <mxCell id="IvrfVeuGX-2x-bHtq6-g-68" value="Annuler une candidature de stage" style="rounded=1;whiteSpace=wrap;html=1;" parent="1" vertex="1">
                    <mxGeometry x="2520" y="915" width="160" height="80" as="geometry"/>
                </mxCell>
                <mxCell id="ED3J-dWW6mjkObuf-_qW-39" style="edgeStyle=orthogonalEdgeStyle;rounded=0;orthogonalLoop=1;jettySize=auto;html=1;entryX=0.842;entryY=0.634;entryDx=0;entryDy=0;entryPerimeter=0;strokeColor=#000000;" parent="1" source="IvrfVeuGX-2x-bHtq6-g-72" target="ED3J-dWW6mjkObuf-_qW-32" edge="1">
                    <mxGeometry relative="1" as="geometry"/>
                </mxCell>
                <mxCell id="IvrfVeuGX-2x-bHtq6-g-72" value="Archiver une candidature de stage" style="rounded=1;whiteSpace=wrap;html=1;" parent="1" vertex="1">
                    <mxGeometry x="2700" y="912.5" width="160" height="80" as="geometry"/>
                </mxCell>
                <mxCell id="ED3J-dWW6mjkObuf-_qW-40" style="edgeStyle=orthogonalEdgeStyle;rounded=0;orthogonalLoop=1;jettySize=auto;html=1;entryX=1;entryY=0.5;entryDx=0;entryDy=0;strokeColor=#000000;exitX=0.5;exitY=0;exitDx=0;exitDy=0;" parent="1" source="IvrfVeuGX-2x-bHtq6-g-74" target="ED3J-dWW6mjkObuf-_qW-32" edge="1">
                    <mxGeometry relative="1" as="geometry"/>
                </mxCell>
                <mxCell id="IvrfVeuGX-2x-bHtq6-g-74" value="Refuser une candidature de stage" style="rounded=1;whiteSpace=wrap;html=1;" parent="1" vertex="1">
                    <mxGeometry x="2870" y="912.5" width="160" height="80" as="geometry"/>
                </mxCell>
                <mxCell id="IvrfVeuGX-2x-bHtq6-g-214" style="edgeStyle=orthogonalEdgeStyle;rounded=0;orthogonalLoop=1;jettySize=auto;html=1;exitX=0.5;exitY=0;exitDx=0;exitDy=0;entryX=1;entryY=0.5;entryDx=0;entryDy=0;" parent="1" source="IvrfVeuGX-2x-bHtq6-g-76" target="IvrfVeuGX-2x-bHtq6-g-211" edge="1">
                    <mxGeometry relative="1" as="geometry"/>
                </mxCell>
                <mxCell id="IvrfVeuGX-2x-bHtq6-g-76" value="Partager des documents avec l’entreprise" style="rounded=1;whiteSpace=wrap;html=1;" parent="1" vertex="1">
                    <mxGeometry x="3225" y="910" width="160" height="80" as="geometry"/>
                </mxCell>
                <mxCell id="IvrfVeuGX-2x-bHtq6-g-220" style="edgeStyle=orthogonalEdgeStyle;rounded=0;orthogonalLoop=1;jettySize=auto;html=1;exitX=0;exitY=0.25;exitDx=0;exitDy=0;entryX=0.25;entryY=0;entryDx=0;entryDy=0;" parent="1" source="IvrfVeuGX-2x-bHtq6-g-78" target="IvrfVeuGX-2x-bHtq6-g-30" edge="1">
                    <mxGeometry relative="1" as="geometry">
                        <Array as="points">
                            <mxPoint x="2280" y="698"/>
                            <mxPoint x="2280" y="1400"/>
                            <mxPoint x="2710" y="1400"/>
                        </Array>
                    </mxGeometry>
                </mxCell>
                <mxCell id="IvrfVeuGX-2x-bHtq6-g-78" value="Valider" style="rounded=1;whiteSpace=wrap;html=1;" parent="1" vertex="1">
                    <mxGeometry x="2627.5" y="687.5" width="120" height="40" as="geometry"/>
                </mxCell>
                <mxCell id="IvrfVeuGX-2x-bHtq6-g-89" value="OUI" style="text;html=1;strokeColor=none;fillColor=none;align=center;verticalAlign=middle;whiteSpace=wrap;rounded=0;" parent="1" vertex="1">
                    <mxGeometry x="2710" y="1620" width="60" height="30" as="geometry"/>
                </mxCell>
                <mxCell id="IvrfVeuGX-2x-bHtq6-g-90" value="NON" style="text;html=1;strokeColor=none;fillColor=none;align=center;verticalAlign=middle;whiteSpace=wrap;rounded=0;" parent="1" vertex="1">
                    <mxGeometry x="2810" y="1700" width="60" height="30" as="geometry"/>
                </mxCell>
                <mxCell id="IvrfVeuGX-2x-bHtq6-g-128" style="edgeStyle=orthogonalEdgeStyle;rounded=0;orthogonalLoop=1;jettySize=auto;html=1;exitX=0;exitY=0;exitDx=0;exitDy=0;strokeColor=#97D077;" parent="1" source="uCB6otb3zmAJfKVbCcx5-58" target="IvrfVeuGX-2x-bHtq6-g-97" edge="1">
                    <mxGeometry relative="1" as="geometry">
                        <Array as="points">
                            <mxPoint x="1450" y="1370"/>
                        </Array>
                    </mxGeometry>
                </mxCell>
                <mxCell id="IvrfVeuGX-2x-bHtq6-g-139" style="edgeStyle=orthogonalEdgeStyle;rounded=0;orthogonalLoop=1;jettySize=auto;html=1;exitX=1;exitY=0;exitDx=0;exitDy=0;entryX=0.167;entryY=0.997;entryDx=0;entryDy=0;entryPerimeter=0;strokeColor=#97D077;" parent="1" source="uCB6otb3zmAJfKVbCcx5-61" target="IvrfVeuGX-2x-bHtq6-g-120" edge="1">
                    <mxGeometry relative="1" as="geometry"/>
                </mxCell>
                <mxCell id="uCB6otb3zmAJfKVbCcx5-62" style="edgeStyle=orthogonalEdgeStyle;rounded=0;orthogonalLoop=1;jettySize=auto;html=1;entryX=0.5;entryY=1;entryDx=0;entryDy=0;fontSize=12;strokeColor=#000000;exitX=0;exitY=0.5;exitDx=0;exitDy=0;" parent="1" source="IvrfVeuGX-2x-bHtq6-g-93" target="uCB6otb3zmAJfKVbCcx5-58" edge="1">
                    <mxGeometry relative="1" as="geometry"/>
                </mxCell>
                <mxCell id="uCB6otb3zmAJfKVbCcx5-63" style="edgeStyle=orthogonalEdgeStyle;rounded=0;orthogonalLoop=1;jettySize=auto;html=1;exitX=1;exitY=0.5;exitDx=0;exitDy=0;entryX=0.5;entryY=1;entryDx=0;entryDy=0;fontSize=12;strokeColor=#000000;" parent="1" source="IvrfVeuGX-2x-bHtq6-g-93" target="uCB6otb3zmAJfKVbCcx5-61" edge="1">
                    <mxGeometry relative="1" as="geometry"/>
                </mxCell>
                <mxCell id="IvrfVeuGX-2x-bHtq6-g-93" value="Pouvoir" style="rhombus;whiteSpace=wrap;html=1;" parent="1" vertex="1">
                    <mxGeometry x="1600" y="1423" width="80" height="80" as="geometry"/>
                </mxCell>
                <mxCell id="IvrfVeuGX-2x-bHtq6-g-130" style="edgeStyle=orthogonalEdgeStyle;rounded=0;orthogonalLoop=1;jettySize=auto;html=1;exitX=0.5;exitY=0;exitDx=0;exitDy=0;entryX=0.5;entryY=1;entryDx=0;entryDy=0;" parent="1" source="IvrfVeuGX-2x-bHtq6-g-95" target="IvrfVeuGX-2x-bHtq6-g-99" edge="1">
                    <mxGeometry relative="1" as="geometry"/>
                </mxCell>
                <mxCell id="IvrfVeuGX-2x-bHtq6-g-95" value="Afficher mon journal de bord lié au stage" style="rounded=1;whiteSpace=wrap;html=1;" parent="1" vertex="1">
                    <mxGeometry x="1540" y="1190" width="200" height="100" as="geometry"/>
                </mxCell>
                <mxCell id="IvrfVeuGX-2x-bHtq6-g-133" style="edgeStyle=orthogonalEdgeStyle;rounded=0;orthogonalLoop=1;jettySize=auto;html=1;exitX=0.5;exitY=0;exitDx=0;exitDy=0;entryX=0.5;entryY=1;entryDx=0;entryDy=0;startArrow=none;strokeColor=#97D077;" parent="1" source="ED3J-dWW6mjkObuf-_qW-8" target="IvrfVeuGX-2x-bHtq6-g-105" edge="1">
                    <mxGeometry relative="1" as="geometry"/>
                </mxCell>
                <mxCell id="IvrfVeuGX-2x-bHtq6-g-97" value="Ajouter un avis sur le stage/ entreprise" style="rounded=1;whiteSpace=wrap;html=1;" parent="1" vertex="1">
                    <mxGeometry x="1370" y="1200" width="160" height="70" as="geometry"/>
                </mxCell>
                <mxCell id="IvrfVeuGX-2x-bHtq6-g-131" style="edgeStyle=orthogonalEdgeStyle;rounded=0;orthogonalLoop=1;jettySize=auto;html=1;exitX=0.5;exitY=0;exitDx=0;exitDy=0;entryX=0.5;entryY=1;entryDx=0;entryDy=0;" parent="1" source="IvrfVeuGX-2x-bHtq6-g-99" target="IvrfVeuGX-2x-bHtq6-g-101" edge="1">
                    <mxGeometry relative="1" as="geometry"/>
                </mxCell>
                <mxCell id="IvrfVeuGX-2x-bHtq6-g-136" style="edgeStyle=orthogonalEdgeStyle;rounded=0;orthogonalLoop=1;jettySize=auto;html=1;exitX=1;exitY=0.5;exitDx=0;exitDy=0;" parent="1" source="IvrfVeuGX-2x-bHtq6-g-99" edge="1">
                    <mxGeometry relative="1" as="geometry">
                        <mxPoint x="1370" y="890" as="targetPoint"/>
                        <Array as="points">
                            <mxPoint x="1730" y="1110"/>
                            <mxPoint x="1730" y="800"/>
                            <mxPoint x="1370" y="800"/>
                        </Array>
                    </mxGeometry>
                </mxCell>
                <mxCell id="IvrfVeuGX-2x-bHtq6-g-137" style="edgeStyle=orthogonalEdgeStyle;rounded=0;orthogonalLoop=1;jettySize=auto;html=1;exitX=1;exitY=1;exitDx=0;exitDy=0;entryX=0;entryY=0.75;entryDx=0;entryDy=0;" parent="1" source="IvrfVeuGX-2x-bHtq6-g-99" target="IvrfVeuGX-2x-bHtq6-g-120" edge="1">
                    <mxGeometry relative="1" as="geometry">
                        <Array as="points">
                            <mxPoint x="1660" y="1135"/>
                        </Array>
                    </mxGeometry>
                </mxCell>
                <mxCell id="IvrfVeuGX-2x-bHtq6-g-99" value="Pouvoir" style="rhombus;whiteSpace=wrap;html=1;" parent="1" vertex="1">
                    <mxGeometry x="1600" y="1070" width="80" height="80" as="geometry"/>
                </mxCell>
                <mxCell id="IvrfVeuGX-2x-bHtq6-g-132" style="edgeStyle=orthogonalEdgeStyle;rounded=0;orthogonalLoop=1;jettySize=auto;html=1;exitX=0;exitY=0.5;exitDx=0;exitDy=0;entryX=1;entryY=0.5;entryDx=0;entryDy=0;strokeColor=#97D077;" parent="1" source="ED3J-dWW6mjkObuf-_qW-25" target="IvrfVeuGX-2x-bHtq6-g-105" edge="1">
                    <mxGeometry relative="1" as="geometry"/>
                </mxCell>
                <mxCell id="ED3J-dWW6mjkObuf-_qW-26" style="edgeStyle=orthogonalEdgeStyle;rounded=0;orthogonalLoop=1;jettySize=auto;html=1;exitX=0.5;exitY=0;exitDx=0;exitDy=0;entryX=0.5;entryY=1;entryDx=0;entryDy=0;strokeColor=#000000;" parent="1" source="IvrfVeuGX-2x-bHtq6-g-101" target="ED3J-dWW6mjkObuf-_qW-25" edge="1">
                    <mxGeometry relative="1" as="geometry"/>
                </mxCell>
                <mxCell id="IvrfVeuGX-2x-bHtq6-g-101" value="&#10;&lt;span style=&quot;color: rgb(0, 0, 0); font-family: Helvetica; font-size: 12px; font-style: normal; font-variant-ligatures: normal; font-variant-caps: normal; font-weight: 400; letter-spacing: normal; orphans: 2; text-align: center; text-indent: 0px; text-transform: none; widows: 2; word-spacing: 0px; -webkit-text-stroke-width: 0px; background-color: rgb(248, 249, 250); text-decoration-thickness: initial; text-decoration-style: initial; text-decoration-color: initial; float: none; display: inline !important;&quot;&gt;Remplir mon journal de bord lié au stage&lt;/span&gt;&#10;&#10;" style="rounded=1;whiteSpace=wrap;html=1;" parent="1" vertex="1">
                    <mxGeometry x="1575" y="985" width="130" height="65" as="geometry"/>
                </mxCell>
                <mxCell id="IvrfVeuGX-2x-bHtq6-g-134" style="edgeStyle=orthogonalEdgeStyle;rounded=0;orthogonalLoop=1;jettySize=auto;html=1;exitX=0;exitY=0.5;exitDx=0;exitDy=0;entryX=0;entryY=0.5;entryDx=0;entryDy=0;" parent="1" source="IvrfVeuGX-2x-bHtq6-g-105" target="IvrfVeuGX-2x-bHtq6-g-36" edge="1">
                    <mxGeometry relative="1" as="geometry">
                        <Array as="points">
                            <mxPoint x="1340" y="890"/>
                            <mxPoint x="1340" y="1580"/>
                        </Array>
                    </mxGeometry>
                </mxCell>
                <mxCell id="IvrfVeuGX-2x-bHtq6-g-105" value="Valider" style="rounded=1;whiteSpace=wrap;html=1;" parent="1" vertex="1">
                    <mxGeometry x="1395" y="870" width="110" height="40" as="geometry"/>
                </mxCell>
                <mxCell id="IvrfVeuGX-2x-bHtq6-g-143" style="edgeStyle=orthogonalEdgeStyle;rounded=0;orthogonalLoop=1;jettySize=auto;html=1;exitX=0.5;exitY=0;exitDx=0;exitDy=0;entryX=0.5;entryY=1;entryDx=0;entryDy=0;" parent="1" source="IvrfVeuGX-2x-bHtq6-g-120" target="IvrfVeuGX-2x-bHtq6-g-142" edge="1">
                    <mxGeometry relative="1" as="geometry"/>
                </mxCell>
                <mxCell id="IvrfVeuGX-2x-bHtq6-g-120" value="Consulter le profil de l'entreprises" style="rounded=1;whiteSpace=wrap;html=1;" parent="1" vertex="1">
                    <mxGeometry x="1890" y="1060" width="200" height="100" as="geometry"/>
                </mxCell>
                <mxCell id="IvrfVeuGX-2x-bHtq6-g-125" value="OUI" style="text;html=1;strokeColor=none;fillColor=none;align=center;verticalAlign=middle;whiteSpace=wrap;rounded=0;" parent="1" vertex="1">
                    <mxGeometry x="2390" y="1585" width="60" height="30" as="geometry"/>
                </mxCell>
                <mxCell id="IvrfVeuGX-2x-bHtq6-g-126" value="NON" style="text;html=1;strokeColor=none;fillColor=none;align=center;verticalAlign=middle;whiteSpace=wrap;rounded=0;" parent="1" vertex="1">
                    <mxGeometry x="2360" y="1690" width="60" height="30" as="geometry"/>
                </mxCell>
                <mxCell id="IvrfVeuGX-2x-bHtq6-g-160" style="edgeStyle=orthogonalEdgeStyle;rounded=0;orthogonalLoop=1;jettySize=auto;html=1;exitX=0.879;exitY=0.709;exitDx=0;exitDy=0;exitPerimeter=0;" parent="1" source="IvrfVeuGX-2x-bHtq6-g-142" edge="1" target="2">
                    <mxGeometry relative="1" as="geometry">
                        <Array as="points">
                            <mxPoint x="2220" y="997"/>
                            <mxPoint x="2220" y="680"/>
                        </Array>
                        <mxPoint x="1350" y="680" as="targetPoint"/>
                    </mxGeometry>
                </mxCell>
                <mxCell id="uCB6otb3zmAJfKVbCcx5-135" style="edgeStyle=orthogonalEdgeStyle;rounded=0;orthogonalLoop=1;jettySize=auto;html=1;entryX=0.5;entryY=1;entryDx=0;entryDy=0;fontSize=12;strokeColor=#000000;exitX=0;exitY=0;exitDx=0;exitDy=0;" parent="1" source="IvrfVeuGX-2x-bHtq6-g-142" target="uCB6otb3zmAJfKVbCcx5-134" edge="1">
                    <mxGeometry relative="1" as="geometry">
                        <Array as="points">
                            <mxPoint x="1920" y="960"/>
                            <mxPoint x="1920" y="960"/>
                        </Array>
                    </mxGeometry>
                </mxCell>
                <mxCell id="uCB6otb3zmAJfKVbCcx5-139" style="edgeStyle=orthogonalEdgeStyle;rounded=0;orthogonalLoop=1;jettySize=auto;html=1;entryX=0;entryY=0.5;entryDx=0;entryDy=0;fontSize=12;strokeColor=#000000;exitX=0.5;exitY=0;exitDx=0;exitDy=0;" parent="1" source="IvrfVeuGX-2x-bHtq6-g-142" target="uCB6otb3zmAJfKVbCcx5-138" edge="1">
                    <mxGeometry relative="1" as="geometry"/>
                </mxCell>
                <mxCell id="IvrfVeuGX-2x-bHtq6-g-142" value="Pouvoir" style="rhombus;whiteSpace=wrap;html=1;" parent="1" vertex="1">
                    <mxGeometry x="1950" y="940" width="80" height="80" as="geometry"/>
                </mxCell>
                <mxCell id="IvrfVeuGX-2x-bHtq6-g-151" style="edgeStyle=orthogonalEdgeStyle;rounded=0;orthogonalLoop=1;jettySize=auto;html=1;exitX=0.5;exitY=0;exitDx=0;exitDy=0;entryX=0;entryY=0.5;entryDx=0;entryDy=0;" parent="1" source="IvrfVeuGX-2x-bHtq6-g-144" target="IvrfVeuGX-2x-bHtq6-g-150" edge="1">
                    <mxGeometry relative="1" as="geometry"/>
                </mxCell>
                <mxCell id="IvrfVeuGX-2x-bHtq6-g-144" value="Faire un commentaire sur l’entreprise de stage" style="rounded=1;whiteSpace=wrap;html=1;" parent="1" vertex="1">
                    <mxGeometry x="1830" y="790" width="140" height="50" as="geometry"/>
                </mxCell>
                <mxCell id="IvrfVeuGX-2x-bHtq6-g-154" style="edgeStyle=orthogonalEdgeStyle;rounded=0;orthogonalLoop=1;jettySize=auto;html=1;exitX=0.5;exitY=0;exitDx=0;exitDy=0;entryX=1;entryY=0.5;entryDx=0;entryDy=0;" parent="1" source="IvrfVeuGX-2x-bHtq6-g-147" target="IvrfVeuGX-2x-bHtq6-g-150" edge="1">
                    <mxGeometry relative="1" as="geometry"/>
                </mxCell>
                <mxCell id="IvrfVeuGX-2x-bHtq6-g-147" value="Lire les avis des autres apprenants sur l’entreprise" style="rounded=1;whiteSpace=wrap;html=1;" parent="1" vertex="1">
                    <mxGeometry x="2050" y="790" width="140" height="50" as="geometry"/>
                </mxCell>
                <mxCell id="IvrfVeuGX-2x-bHtq6-g-159" style="edgeStyle=orthogonalEdgeStyle;rounded=0;orthogonalLoop=1;jettySize=auto;html=1;exitX=0;exitY=0;exitDx=0;exitDy=0;entryX=0;entryY=0.5;entryDx=0;entryDy=0;" parent="1" source="IvrfVeuGX-2x-bHtq6-g-150" target="IvrfVeuGX-2x-bHtq6-g-120" edge="1">
                    <mxGeometry relative="1" as="geometry">
                        <Array as="points">
                            <mxPoint x="1990" y="700"/>
                            <mxPoint x="1790" y="700"/>
                            <mxPoint x="1790" y="1110"/>
                        </Array>
                    </mxGeometry>
                </mxCell>
                <mxCell id="IvrfVeuGX-2x-bHtq6-g-150" value="Pouvoir" style="rhombus;whiteSpace=wrap;html=1;" parent="1" vertex="1">
                    <mxGeometry x="1970" y="687.5" width="80" height="80" as="geometry"/>
                </mxCell>
                <mxCell id="uCB6otb3zmAJfKVbCcx5-28" style="edgeStyle=orthogonalEdgeStyle;rounded=0;orthogonalLoop=1;jettySize=auto;html=1;exitX=0;exitY=0.5;exitDx=0;exitDy=0;entryX=0.5;entryY=0;entryDx=0;entryDy=0;strokeColor=#000000;" parent="1" source="IvrfVeuGX-2x-bHtq6-g-161" target="uCB6otb3zmAJfKVbCcx5-23" edge="1">
                    <mxGeometry relative="1" as="geometry"/>
                </mxCell>
                <mxCell id="uCB6otb3zmAJfKVbCcx5-33" style="edgeStyle=orthogonalEdgeStyle;rounded=0;orthogonalLoop=1;jettySize=auto;html=1;exitX=1;exitY=0.5;exitDx=0;exitDy=0;entryX=0.5;entryY=0;entryDx=0;entryDy=0;strokeColor=#000000;" parent="1" source="IvrfVeuGX-2x-bHtq6-g-161" target="uCB6otb3zmAJfKVbCcx5-30" edge="1">
                    <mxGeometry relative="1" as="geometry"/>
                </mxCell>
                <mxCell id="IvrfVeuGX-2x-bHtq6-g-161" value="Pouvoir" style="rhombus;whiteSpace=wrap;html=1;" parent="1" vertex="1">
                    <mxGeometry x="-335" y="870" width="110" height="110" as="geometry"/>
                </mxCell>
                <mxCell id="IvrfVeuGX-2x-bHtq6-g-223" style="edgeStyle=orthogonalEdgeStyle;rounded=0;orthogonalLoop=1;jettySize=auto;html=1;exitX=0.5;exitY=0;exitDx=0;exitDy=0;entryX=0;entryY=0;entryDx=0;entryDy=0;" parent="1" source="IvrfVeuGX-2x-bHtq6-g-164" target="IvrfVeuGX-2x-bHtq6-g-12" edge="1">
                    <mxGeometry relative="1" as="geometry">
                        <Array as="points">
                            <mxPoint x="-525" y="500"/>
                            <mxPoint x="515" y="500"/>
                            <mxPoint x="515" y="535"/>
                        </Array>
                    </mxGeometry>
                </mxCell>
                <mxCell id="uCB6otb3zmAJfKVbCcx5-121" style="edgeStyle=orthogonalEdgeStyle;rounded=0;orthogonalLoop=1;jettySize=auto;html=1;exitX=0;exitY=0.5;exitDx=0;exitDy=0;entryX=0.5;entryY=0;entryDx=0;entryDy=0;fontSize=12;strokeColor=#000000;" parent="1" source="IvrfVeuGX-2x-bHtq6-g-164" target="uCB6otb3zmAJfKVbCcx5-9" edge="1">
                    <mxGeometry relative="1" as="geometry"/>
                </mxCell>
                <mxCell id="IvrfVeuGX-2x-bHtq6-g-164" value="Afficher" style="rhombus;whiteSpace=wrap;html=1;" parent="1" vertex="1">
                    <mxGeometry x="-580" y="657.5" width="110" height="110" as="geometry"/>
                </mxCell>
                <mxCell id="IvrfVeuGX-2x-bHtq6-g-171" style="edgeStyle=orthogonalEdgeStyle;rounded=0;orthogonalLoop=1;jettySize=auto;html=1;exitX=0.5;exitY=1;exitDx=0;exitDy=0;entryX=0.5;entryY=0;entryDx=0;entryDy=0;" parent="1" source="6" target="IvrfVeuGX-2x-bHtq6-g-170" edge="1">
                    <mxGeometry relative="1" as="geometry">
                        <Array as="points">
                            <mxPoint x="-768" y="1120"/>
                            <mxPoint x="-584" y="1120"/>
                        </Array>
                        <mxPoint x="-760" y="1060.0000000000002" as="sourcePoint"/>
                    </mxGeometry>
                </mxCell>
                <mxCell id="uCB6otb3zmAJfKVbCcx5-22" style="edgeStyle=orthogonalEdgeStyle;rounded=0;orthogonalLoop=1;jettySize=auto;html=1;exitX=0;exitY=0.5;exitDx=0;exitDy=0;entryX=1;entryY=0.5;entryDx=0;entryDy=0;strokeColor=#000000;" parent="1" source="IvrfVeuGX-2x-bHtq6-g-170" target="uCB6otb3zmAJfKVbCcx5-16" edge="1">
                    <mxGeometry relative="1" as="geometry"/>
                </mxCell>
                <mxCell id="uCB6otb3zmAJfKVbCcx5-125" style="edgeStyle=orthogonalEdgeStyle;rounded=0;orthogonalLoop=1;jettySize=auto;html=1;entryX=0.5;entryY=0;entryDx=0;entryDy=0;fontSize=12;strokeColor=#000000;" parent="1" source="IvrfVeuGX-2x-bHtq6-g-170" target="uCB6otb3zmAJfKVbCcx5-122" edge="1">
                    <mxGeometry relative="1" as="geometry"/>
                </mxCell>
                <mxCell id="IvrfVeuGX-2x-bHtq6-g-170" value="Pouvoir" style="rhombus;whiteSpace=wrap;html=1;" parent="1" vertex="1">
                    <mxGeometry x="-639" y="1150" width="110" height="110" as="geometry"/>
                </mxCell>
                <mxCell id="IvrfVeuGX-2x-bHtq6-g-209" style="edgeStyle=orthogonalEdgeStyle;rounded=0;orthogonalLoop=1;jettySize=auto;html=1;exitX=0;exitY=0.5;exitDx=0;exitDy=0;entryX=1;entryY=0.5;entryDx=0;entryDy=0;" parent="1" source="IvrfVeuGX-2x-bHtq6-g-173" target="IvrfVeuGX-2x-bHtq6-g-207" edge="1">
                    <mxGeometry relative="1" as="geometry"/>
                </mxCell>
                <mxCell id="IvrfVeuGX-2x-bHtq6-g-173" value="&lt;span style=&quot;color: rgb(0, 0, 0); font-family: Helvetica; font-size: 12px; font-style: normal; font-variant-ligatures: normal; font-variant-caps: normal; font-weight: 400; letter-spacing: normal; orphans: 2; text-align: center; text-indent: 0px; text-transform: none; widows: 2; word-spacing: 0px; -webkit-text-stroke-width: 0px; text-decoration-thickness: initial; text-decoration-style: initial; text-decoration-color: initial; float: none; display: inline !important;&quot;&gt;Pouvoir postuler à des offres de stage&lt;/span&gt;" style="rounded=1;whiteSpace=wrap;html=1;" parent="1" vertex="1">
                    <mxGeometry x="-1000" y="1175" width="120" height="60" as="geometry"/>
                </mxCell>
                <mxCell id="IvrfVeuGX-2x-bHtq6-g-208" style="edgeStyle=orthogonalEdgeStyle;rounded=0;orthogonalLoop=1;jettySize=auto;html=1;exitX=0;exitY=0.5;exitDx=0;exitDy=0;entryX=0.5;entryY=1;entryDx=0;entryDy=0;" parent="1" source="IvrfVeuGX-2x-bHtq6-g-175" target="IvrfVeuGX-2x-bHtq6-g-207" edge="1">
                    <mxGeometry relative="1" as="geometry"/>
                </mxCell>
                <mxCell id="IvrfVeuGX-2x-bHtq6-g-175" value="Consulter le profil de l'entreprises" style="rounded=1;whiteSpace=wrap;html=1;" parent="1" vertex="1">
                    <mxGeometry x="-670" y="1453" width="200" height="100" as="geometry"/>
                </mxCell>
                <mxCell id="IvrfVeuGX-2x-bHtq6-g-193" style="edgeStyle=orthogonalEdgeStyle;rounded=0;orthogonalLoop=1;jettySize=auto;html=1;exitX=0.5;exitY=0;exitDx=0;exitDy=0;entryX=0.983;entryY=0.576;entryDx=0;entryDy=0;entryPerimeter=0;" parent="1" source="IvrfVeuGX-2x-bHtq6-g-191" target="3" edge="1">
                    <mxGeometry relative="1" as="geometry">
                        <mxPoint x="-180" y="712.5" as="targetPoint"/>
                        <Array as="points">
                            <mxPoint x="335" y="713"/>
                        </Array>
                    </mxGeometry>
                </mxCell>
                <mxCell id="IvrfVeuGX-2x-bHtq6-g-206" style="edgeStyle=orthogonalEdgeStyle;rounded=0;orthogonalLoop=1;jettySize=auto;html=1;exitX=1;exitY=0.5;exitDx=0;exitDy=0;entryX=0.131;entryY=0.667;entryDx=0;entryDy=0;entryPerimeter=0;" parent="1" source="IvrfVeuGX-2x-bHtq6-g-191" target="IvrfVeuGX-2x-bHtq6-g-12" edge="1">
                    <mxGeometry relative="1" as="geometry">
                        <mxPoint x="470" y="570" as="targetPoint"/>
                        <Array as="points">
                            <mxPoint x="460" y="1205"/>
                            <mxPoint x="460" y="610"/>
                        </Array>
                    </mxGeometry>
                </mxCell>
                <mxCell id="IvrfVeuGX-2x-bHtq6-g-191" value="Afficher" style="rhombus;whiteSpace=wrap;html=1;" parent="1" vertex="1">
                    <mxGeometry x="280" y="1150" width="110" height="110" as="geometry"/>
                </mxCell>
                <mxCell id="IvrfVeuGX-2x-bHtq6-g-197" style="edgeStyle=orthogonalEdgeStyle;rounded=0;orthogonalLoop=1;jettySize=auto;html=1;exitX=0.5;exitY=0;exitDx=0;exitDy=0;entryX=0;entryY=0.5;entryDx=0;entryDy=0;" parent="1" source="IvrfVeuGX-2x-bHtq6-g-194" target="IvrfVeuGX-2x-bHtq6-g-195" edge="1">
                    <mxGeometry relative="1" as="geometry"/>
                </mxCell>
                <mxCell id="IvrfVeuGX-2x-bHtq6-g-199" style="edgeStyle=orthogonalEdgeStyle;rounded=0;orthogonalLoop=1;jettySize=auto;html=1;exitX=1;exitY=0.5;exitDx=0;exitDy=0;entryX=0;entryY=0.5;entryDx=0;entryDy=0;" parent="1" source="IvrfVeuGX-2x-bHtq6-g-194" target="IvrfVeuGX-2x-bHtq6-g-198" edge="1">
                    <mxGeometry relative="1" as="geometry"/>
                </mxCell>
                <mxCell id="IvrfVeuGX-2x-bHtq6-g-201" style="edgeStyle=orthogonalEdgeStyle;rounded=0;orthogonalLoop=1;jettySize=auto;html=1;exitX=0.5;exitY=1;exitDx=0;exitDy=0;entryX=0;entryY=0.5;entryDx=0;entryDy=0;" parent="1" source="IvrfVeuGX-2x-bHtq6-g-194" target="IvrfVeuGX-2x-bHtq6-g-200" edge="1">
                    <mxGeometry relative="1" as="geometry"/>
                </mxCell>
                <mxCell id="IvrfVeuGX-2x-bHtq6-g-194" value="Pouvoir filtrer les offres de stage" style="rhombus;whiteSpace=wrap;html=1;" parent="1" vertex="1">
                    <mxGeometry x="-160" y="1150" width="110" height="110" as="geometry"/>
                </mxCell>
                <mxCell id="IvrfVeuGX-2x-bHtq6-g-203" style="edgeStyle=orthogonalEdgeStyle;rounded=0;orthogonalLoop=1;jettySize=auto;html=1;exitX=1;exitY=0.5;exitDx=0;exitDy=0;entryX=0.198;entryY=0.317;entryDx=0;entryDy=0;entryPerimeter=0;" parent="1" source="IvrfVeuGX-2x-bHtq6-g-195" target="IvrfVeuGX-2x-bHtq6-g-191" edge="1">
                    <mxGeometry relative="1" as="geometry"/>
                </mxCell>
                <mxCell id="IvrfVeuGX-2x-bHtq6-g-195" value="Filtrer par techno / skill" style="rounded=1;whiteSpace=wrap;html=1;" parent="1" vertex="1">
                    <mxGeometry x="49.97" y="1070" width="120" height="60" as="geometry"/>
                </mxCell>
                <mxCell id="IvrfVeuGX-2x-bHtq6-g-202" style="edgeStyle=orthogonalEdgeStyle;rounded=0;orthogonalLoop=1;jettySize=auto;html=1;exitX=1;exitY=0.5;exitDx=0;exitDy=0;" parent="1" source="IvrfVeuGX-2x-bHtq6-g-198" target="IvrfVeuGX-2x-bHtq6-g-191" edge="1">
                    <mxGeometry relative="1" as="geometry"/>
                </mxCell>
                <mxCell id="IvrfVeuGX-2x-bHtq6-g-198" value="Filtrer par entreprise" style="rounded=1;whiteSpace=wrap;html=1;" parent="1" vertex="1">
                    <mxGeometry x="59.97" y="1175" width="120" height="60" as="geometry"/>
                </mxCell>
                <mxCell id="IvrfVeuGX-2x-bHtq6-g-204" style="edgeStyle=orthogonalEdgeStyle;rounded=0;orthogonalLoop=1;jettySize=auto;html=1;exitX=1;exitY=0.5;exitDx=0;exitDy=0;entryX=0;entryY=1;entryDx=0;entryDy=0;" parent="1" source="IvrfVeuGX-2x-bHtq6-g-200" target="IvrfVeuGX-2x-bHtq6-g-191" edge="1">
                    <mxGeometry relative="1" as="geometry"/>
                </mxCell>
                <mxCell id="IvrfVeuGX-2x-bHtq6-g-200" value="&#10;&lt;span style=&quot;color: rgb(0, 0, 0); font-family: Helvetica; font-size: 12px; font-style: normal; font-variant-ligatures: normal; font-variant-caps: normal; font-weight: 400; letter-spacing: normal; orphans: 2; text-indent: 0px; text-transform: none; widows: 2; word-spacing: 0px; -webkit-text-stroke-width: 0px; background-color: rgb(248, 249, 250); text-decoration-thickness: initial; text-decoration-style: initial; text-decoration-color: initial; float: none; display: inline !important;&quot;&gt;Filtrer par localisation&lt;/span&gt;&#10;&#10;" style="rounded=1;whiteSpace=wrap;html=1;align=center;verticalAlign=middle;" parent="1" vertex="1">
                    <mxGeometry x="49.97" y="1300" width="120" height="60" as="geometry"/>
                </mxCell>
                <mxCell id="uCB6otb3zmAJfKVbCcx5-14" style="edgeStyle=orthogonalEdgeStyle;rounded=0;orthogonalLoop=1;jettySize=auto;html=1;exitX=0.5;exitY=0;exitDx=0;exitDy=0;entryX=0;entryY=0;entryDx=0;entryDy=0;strokeColor=#000000;" parent="1" source="IvrfVeuGX-2x-bHtq6-g-207" target="IvrfVeuGX-2x-bHtq6-g-164" edge="1">
                    <mxGeometry relative="1" as="geometry">
                        <Array as="points">
                            <mxPoint x="-1105" y="680"/>
                            <mxPoint x="-552" y="680"/>
                        </Array>
                    </mxGeometry>
                </mxCell>
                <mxCell id="IvrfVeuGX-2x-bHtq6-g-207" value="Pouvoir" style="rhombus;whiteSpace=wrap;html=1;" parent="1" vertex="1">
                    <mxGeometry x="-1160" y="1152.5" width="110" height="110" as="geometry"/>
                </mxCell>
                <mxCell id="ED3J-dWW6mjkObuf-_qW-48" style="edgeStyle=orthogonalEdgeStyle;rounded=0;orthogonalLoop=1;jettySize=auto;html=1;entryX=1;entryY=0.5;entryDx=0;entryDy=0;strokeColor=#000000;strokeWidth=1;exitX=0;exitY=0;exitDx=0;exitDy=0;" parent="1" source="IvrfVeuGX-2x-bHtq6-g-211" target="IvrfVeuGX-2x-bHtq6-g-78" edge="1">
                    <mxGeometry relative="1" as="geometry"/>
                </mxCell>
                <mxCell id="IvrfVeuGX-2x-bHtq6-g-211" value="Pouvoir" style="rhombus;whiteSpace=wrap;html=1;" parent="1" vertex="1">
                    <mxGeometry x="3150" y="680" width="110" height="110" as="geometry"/>
                </mxCell>
                <mxCell id="uCB6otb3zmAJfKVbCcx5-4" style="edgeStyle=orthogonalEdgeStyle;rounded=0;orthogonalLoop=1;jettySize=auto;html=1;exitX=0.5;exitY=1;exitDx=0;exitDy=0;entryX=0.5;entryY=0;entryDx=0;entryDy=0;strokeColor=#FF6666;" parent="1" source="uCB6otb3zmAJfKVbCcx5-1" target="uCB6otb3zmAJfKVbCcx5-2" edge="1">
                    <mxGeometry relative="1" as="geometry"/>
                </mxCell>
                <mxCell id="uCB6otb3zmAJfKVbCcx5-5" style="edgeStyle=orthogonalEdgeStyle;rounded=0;orthogonalLoop=1;jettySize=auto;html=1;exitX=0;exitY=0.5;exitDx=0;exitDy=0;strokeColor=#4D9900;entryX=0.5;entryY=0;entryDx=0;entryDy=0;" parent="1" source="uCB6otb3zmAJfKVbCcx5-1" edge="1" target="3">
                    <mxGeometry relative="1" as="geometry">
                        <mxPoint x="-280" y="660" as="targetPoint"/>
                    </mxGeometry>
                </mxCell>
                <mxCell id="uCB6otb3zmAJfKVbCcx5-1" value="Si exist" style="rhombus;whiteSpace=wrap;html=1;" parent="1" vertex="1">
                    <mxGeometry x="-110.03" y="525" width="110" height="110" as="geometry"/>
                </mxCell>
                <mxCell id="uCB6otb3zmAJfKVbCcx5-2" value="" style="ellipse;html=1;shape=endState;fillColor=#000000;strokeColor=#ff0000;" parent="1" vertex="1">
                    <mxGeometry x="-70" y="670" width="30" height="30" as="geometry"/>
                </mxCell>
                <mxCell id="uCB6otb3zmAJfKVbCcx5-6" value="OUI" style="text;html=1;strokeColor=none;fillColor=none;align=center;verticalAlign=middle;whiteSpace=wrap;rounded=0;" parent="1" vertex="1">
                    <mxGeometry x="-150" y="550" width="60" height="30" as="geometry"/>
                </mxCell>
                <mxCell id="uCB6otb3zmAJfKVbCcx5-7" value="NON" style="text;html=1;strokeColor=none;fillColor=none;align=center;verticalAlign=middle;whiteSpace=wrap;rounded=0;" parent="1" vertex="1">
                    <mxGeometry x="-70" y="635" width="60" height="30" as="geometry"/>
                </mxCell>
                <mxCell id="uCB6otb3zmAJfKVbCcx5-8" style="edgeStyle=orthogonalEdgeStyle;rounded=0;orthogonalLoop=1;jettySize=auto;html=1;entryX=0.5;entryY=1;entryDx=0;entryDy=0;strokeColor=#FF6666;" parent="1" source="uCB6otb3zmAJfKVbCcx5-9" target="IvrfVeuGX-2x-bHtq6-g-164" edge="1">
                    <mxGeometry relative="1" as="geometry">
                        <mxPoint x="-755" y="882.5" as="targetPoint"/>
                    </mxGeometry>
                </mxCell>
                <mxCell id="7" style="edgeStyle=none;html=1;exitX=0.5;exitY=1;exitDx=0;exitDy=0;entryX=0.5;entryY=0;entryDx=0;entryDy=0;strokeColor=#009900;" edge="1" parent="1" source="uCB6otb3zmAJfKVbCcx5-9" target="6">
                    <mxGeometry relative="1" as="geometry"/>
                </mxCell>
                <mxCell id="uCB6otb3zmAJfKVbCcx5-9" value="Si exist" style="rhombus;whiteSpace=wrap;html=1;" parent="1" vertex="1">
                    <mxGeometry x="-820" y="805" width="110" height="110" as="geometry"/>
                </mxCell>
                <mxCell id="uCB6otb3zmAJfKVbCcx5-11" value="OUI" style="text;html=1;strokeColor=none;fillColor=none;align=center;verticalAlign=middle;whiteSpace=wrap;rounded=0;" parent="1" vertex="1">
                    <mxGeometry x="-830" y="910" width="60" height="30" as="geometry"/>
                </mxCell>
                <mxCell id="uCB6otb3zmAJfKVbCcx5-12" value="NON" style="text;html=1;strokeColor=none;fillColor=none;align=center;verticalAlign=middle;whiteSpace=wrap;rounded=0;" parent="1" vertex="1">
                    <mxGeometry x="-740" y="830" width="60" height="30" as="geometry"/>
                </mxCell>
                <mxCell id="uCB6otb3zmAJfKVbCcx5-17" style="edgeStyle=orthogonalEdgeStyle;rounded=0;orthogonalLoop=1;jettySize=auto;html=1;strokeColor=#4D9900;" parent="1" source="uCB6otb3zmAJfKVbCcx5-16" target="IvrfVeuGX-2x-bHtq6-g-173" edge="1">
                    <mxGeometry relative="1" as="geometry"/>
                </mxCell>
                <mxCell id="uCB6otb3zmAJfKVbCcx5-18" style="edgeStyle=orthogonalEdgeStyle;rounded=0;orthogonalLoop=1;jettySize=auto;html=1;exitX=0.5;exitY=0;exitDx=0;exitDy=0;strokeColor=#FF6666;" parent="1" source="uCB6otb3zmAJfKVbCcx5-16" edge="1">
                    <mxGeometry relative="1" as="geometry">
                        <mxPoint x="-1110" y="1140" as="targetPoint"/>
                        <Array as="points">
                            <mxPoint x="-755" y="1140"/>
                            <mxPoint x="-1100" y="1140"/>
                        </Array>
                    </mxGeometry>
                </mxCell>
                <mxCell id="uCB6otb3zmAJfKVbCcx5-16" value="Si candidature valide" style="rhombus;whiteSpace=wrap;html=1;" parent="1" vertex="1">
                    <mxGeometry x="-810" y="1150" width="110" height="110" as="geometry"/>
                </mxCell>
                <mxCell id="uCB6otb3zmAJfKVbCcx5-19" value="OUI" style="text;html=1;strokeColor=none;fillColor=none;align=center;verticalAlign=middle;whiteSpace=wrap;rounded=0;" parent="1" vertex="1">
                    <mxGeometry x="-840" y="1220" width="60" height="30" as="geometry"/>
                </mxCell>
                <mxCell id="uCB6otb3zmAJfKVbCcx5-20" value="NON" style="text;html=1;strokeColor=none;fillColor=none;align=center;verticalAlign=middle;whiteSpace=wrap;rounded=0;" parent="1" vertex="1">
                    <mxGeometry x="-820" y="1135" width="60" height="30" as="geometry"/>
                </mxCell>
                <mxCell id="uCB6otb3zmAJfKVbCcx5-26" style="edgeStyle=orthogonalEdgeStyle;rounded=0;orthogonalLoop=1;jettySize=auto;html=1;strokeColor=#FF6666;" parent="1" source="uCB6otb3zmAJfKVbCcx5-23" target="IvrfVeuGX-2x-bHtq6-g-164" edge="1">
                    <mxGeometry relative="1" as="geometry"/>
                </mxCell>
                <mxCell id="uCB6otb3zmAJfKVbCcx5-27" style="edgeStyle=orthogonalEdgeStyle;rounded=0;orthogonalLoop=1;jettySize=auto;html=1;exitX=0.5;exitY=1;exitDx=0;exitDy=0;entryX=1;entryY=0.5;entryDx=0;entryDy=0;strokeColor=#4D9900;" parent="1" source="uCB6otb3zmAJfKVbCcx5-23" target="IvrfVeuGX-2x-bHtq6-g-175" edge="1">
                    <mxGeometry relative="1" as="geometry"/>
                </mxCell>
                <mxCell id="uCB6otb3zmAJfKVbCcx5-23" value="Si exist" style="rhombus;whiteSpace=wrap;html=1;" parent="1" vertex="1">
                    <mxGeometry x="-460" y="1000" width="110" height="110" as="geometry"/>
                </mxCell>
                <mxCell id="uCB6otb3zmAJfKVbCcx5-24" value="NON" style="text;html=1;strokeColor=none;fillColor=none;align=center;verticalAlign=middle;whiteSpace=wrap;rounded=0;" parent="1" vertex="1">
                    <mxGeometry x="-510" y="1020" width="60" height="30" as="geometry"/>
                </mxCell>
                <mxCell id="uCB6otb3zmAJfKVbCcx5-25" value="OUI" style="text;html=1;strokeColor=none;fillColor=none;align=center;verticalAlign=middle;whiteSpace=wrap;rounded=0;" parent="1" vertex="1">
                    <mxGeometry x="-470" y="1112.5" width="60" height="30" as="geometry"/>
                </mxCell>
                <mxCell id="uCB6otb3zmAJfKVbCcx5-34" style="edgeStyle=orthogonalEdgeStyle;rounded=0;orthogonalLoop=1;jettySize=auto;html=1;strokeColor=#97D077;entryX=0;entryY=0.5;entryDx=0;entryDy=0;exitX=0.5;exitY=1;exitDx=0;exitDy=0;" parent="1" source="uCB6otb3zmAJfKVbCcx5-30" target="IvrfVeuGX-2x-bHtq6-g-194" edge="1">
                    <mxGeometry relative="1" as="geometry">
                        <mxPoint x="-120" y="1210" as="targetPoint"/>
                    </mxGeometry>
                </mxCell>
                <mxCell id="uCB6otb3zmAJfKVbCcx5-35" style="edgeStyle=orthogonalEdgeStyle;rounded=0;orthogonalLoop=1;jettySize=auto;html=1;exitX=1;exitY=0.5;exitDx=0;exitDy=0;strokeColor=#FF6666;" parent="1" source="uCB6otb3zmAJfKVbCcx5-30" target="IvrfVeuGX-2x-bHtq6-g-164" edge="1">
                    <mxGeometry relative="1" as="geometry">
                        <mxPoint x="-190" y="870" as="targetPoint"/>
                        <Array as="points">
                            <mxPoint x="-110" y="1050"/>
                            <mxPoint x="-110" y="810"/>
                            <mxPoint x="-525" y="810"/>
                        </Array>
                    </mxGeometry>
                </mxCell>
                <mxCell id="uCB6otb3zmAJfKVbCcx5-30" value="Si exist" style="rhombus;whiteSpace=wrap;html=1;" parent="1" vertex="1">
                    <mxGeometry x="-240" y="995" width="110" height="110" as="geometry"/>
                </mxCell>
                <mxCell id="uCB6otb3zmAJfKVbCcx5-31" value="OUI" style="text;html=1;strokeColor=none;fillColor=none;align=center;verticalAlign=middle;whiteSpace=wrap;rounded=0;" parent="1" vertex="1">
                    <mxGeometry x="-240" y="1105" width="60" height="30" as="geometry"/>
                </mxCell>
                <mxCell id="uCB6otb3zmAJfKVbCcx5-36" value="NON" style="text;html=1;strokeColor=none;fillColor=none;align=center;verticalAlign=middle;whiteSpace=wrap;rounded=0;" parent="1" vertex="1">
                    <mxGeometry x="-160" y="1010" width="60" height="30" as="geometry"/>
                </mxCell>
                <mxCell id="uCB6otb3zmAJfKVbCcx5-38" style="edgeStyle=orthogonalEdgeStyle;rounded=0;orthogonalLoop=1;jettySize=auto;html=1;exitX=0.4;exitY=0.925;exitDx=0;exitDy=0;startArrow=none;strokeColor=#000000;exitPerimeter=0;entryX=0;entryY=0.5;entryDx=0;entryDy=0;" parent="1" source="IvrfVeuGX-2x-bHtq6-g-47" edge="1" target="2">
                    <mxGeometry relative="1" as="geometry">
                        <Array as="points">
                            <mxPoint x="970" y="1485"/>
                            <mxPoint x="720" y="1485"/>
                            <mxPoint x="720" y="680"/>
                            <mxPoint x="1180" y="680"/>
                        </Array>
                        <mxPoint x="850" y="2050" as="sourcePoint"/>
                        <mxPoint x="1150" y="680" as="targetPoint"/>
                    </mxGeometry>
                </mxCell>
                <mxCell id="uCB6otb3zmAJfKVbCcx5-40" style="edgeStyle=orthogonalEdgeStyle;rounded=0;orthogonalLoop=1;jettySize=auto;html=1;exitX=0.122;exitY=0.665;exitDx=0;exitDy=0;entryX=0.5;entryY=0;entryDx=0;entryDy=0;strokeColor=#97D077;exitPerimeter=0;" parent="1" source="uCB6otb3zmAJfKVbCcx5-39" target="IvrfVeuGX-2x-bHtq6-g-24" edge="1">
                    <mxGeometry relative="1" as="geometry"/>
                </mxCell>
                <mxCell id="uCB6otb3zmAJfKVbCcx5-41" style="edgeStyle=orthogonalEdgeStyle;rounded=0;orthogonalLoop=1;jettySize=auto;html=1;exitX=0.781;exitY=0.715;exitDx=0;exitDy=0;entryX=0.5;entryY=0;entryDx=0;entryDy=0;strokeColor=#97D077;exitPerimeter=0;" parent="1" source="uCB6otb3zmAJfKVbCcx5-39" target="IvrfVeuGX-2x-bHtq6-g-25" edge="1">
                    <mxGeometry relative="1" as="geometry"/>
                </mxCell>
                <mxCell id="uCB6otb3zmAJfKVbCcx5-42" style="edgeStyle=orthogonalEdgeStyle;rounded=0;orthogonalLoop=1;jettySize=auto;html=1;exitX=0;exitY=0;exitDx=0;exitDy=0;entryX=0;entryY=0.5;entryDx=0;entryDy=0;strokeColor=#FF6666;" parent="1" source="uCB6otb3zmAJfKVbCcx5-39" target="IvrfVeuGX-2x-bHtq6-g-22" edge="1">
                    <mxGeometry relative="1" as="geometry">
                        <Array as="points">
                            <mxPoint x="920" y="1028"/>
                            <mxPoint x="920" y="875"/>
                        </Array>
                    </mxGeometry>
                </mxCell>
                <mxCell id="uCB6otb3zmAJfKVbCcx5-39" value="Si existe" style="rhombus;whiteSpace=wrap;html=1;" parent="1" vertex="1">
                    <mxGeometry x="940" y="1000" width="110" height="110" as="geometry"/>
                </mxCell>
                <mxCell id="uCB6otb3zmAJfKVbCcx5-46" value="OUI" style="text;html=1;strokeColor=none;fillColor=none;align=center;verticalAlign=middle;whiteSpace=wrap;rounded=0;" parent="1" vertex="1">
                    <mxGeometry x="920" y="1070" width="60" height="30" as="geometry"/>
                </mxCell>
                <mxCell id="ED3J-dWW6mjkObuf-_qW-17" style="edgeStyle=orthogonalEdgeStyle;rounded=0;orthogonalLoop=1;jettySize=auto;html=1;exitX=1;exitY=1;exitDx=0;exitDy=0;strokeColor=#000000;" parent="1" source="uCB6otb3zmAJfKVbCcx5-47" edge="1">
                    <mxGeometry relative="1" as="geometry">
                        <mxPoint x="1070" y="1100.0344827586207" as="targetPoint"/>
                    </mxGeometry>
                </mxCell>
                <mxCell id="uCB6otb3zmAJfKVbCcx5-47" value="OUI" style="text;html=1;strokeColor=none;fillColor=none;align=center;verticalAlign=middle;whiteSpace=wrap;rounded=0;" parent="1" vertex="1">
                    <mxGeometry x="1010" y="1070" width="60" height="30" as="geometry"/>
                </mxCell>
                <mxCell id="uCB6otb3zmAJfKVbCcx5-48" value="NON" style="text;html=1;strokeColor=none;fillColor=none;align=center;verticalAlign=middle;whiteSpace=wrap;rounded=0;" parent="1" vertex="1">
                    <mxGeometry x="910" y="977.5" width="60" height="30" as="geometry"/>
                </mxCell>
                <mxCell id="uCB6otb3zmAJfKVbCcx5-57" style="edgeStyle=orthogonalEdgeStyle;rounded=0;orthogonalLoop=1;jettySize=auto;html=1;exitX=1;exitY=0;exitDx=0;exitDy=0;entryX=0.461;entryY=1.006;entryDx=0;entryDy=0;strokeColor=#97D077;entryPerimeter=0;" parent="1" source="uCB6otb3zmAJfKVbCcx5-51" target="IvrfVeuGX-2x-bHtq6-g-59" edge="1">
                    <mxGeometry relative="1" as="geometry">
                        <Array as="points">
                            <mxPoint x="3297" y="1508"/>
                        </Array>
                    </mxGeometry>
                </mxCell>
                <mxCell id="uCB6otb3zmAJfKVbCcx5-51" value="Si exist" style="rhombus;whiteSpace=wrap;html=1;" parent="1" vertex="1">
                    <mxGeometry x="3120" y="1480" width="110" height="110" as="geometry"/>
                </mxCell>
                <mxCell id="uCB6otb3zmAJfKVbCcx5-52" value="NON" style="text;html=1;strokeColor=none;fillColor=none;align=center;verticalAlign=middle;whiteSpace=wrap;rounded=0;" parent="1" vertex="1">
                    <mxGeometry x="3220" y="1540" width="60" height="30" as="geometry"/>
                </mxCell>
                <mxCell id="uCB6otb3zmAJfKVbCcx5-55" value="OUI" style="text;html=1;strokeColor=none;fillColor=none;align=center;verticalAlign=middle;whiteSpace=wrap;rounded=0;" parent="1" vertex="1">
                    <mxGeometry x="3190" y="1480" width="60" height="30" as="geometry"/>
                </mxCell>
                <mxCell id="uCB6otb3zmAJfKVbCcx5-60" style="edgeStyle=orthogonalEdgeStyle;rounded=0;orthogonalLoop=1;jettySize=auto;html=1;exitX=1;exitY=0;exitDx=0;exitDy=0;entryX=0.5;entryY=1;entryDx=0;entryDy=0;fontSize=12;strokeColor=#97D077;" parent="1" source="uCB6otb3zmAJfKVbCcx5-58" target="IvrfVeuGX-2x-bHtq6-g-95" edge="1">
                    <mxGeometry relative="1" as="geometry"/>
                </mxCell>
                <mxCell id="uCB6otb3zmAJfKVbCcx5-65" style="edgeStyle=orthogonalEdgeStyle;rounded=0;orthogonalLoop=1;jettySize=auto;html=1;exitX=0;exitY=1;exitDx=0;exitDy=0;fontSize=12;strokeColor=#FF6666;" parent="1" source="uCB6otb3zmAJfKVbCcx5-58" edge="1">
                    <mxGeometry relative="1" as="geometry">
                        <mxPoint x="2570" y="1520" as="targetPoint"/>
                        <Array as="points">
                            <mxPoint x="1515" y="1520"/>
                            <mxPoint x="2550" y="1520"/>
                        </Array>
                    </mxGeometry>
                </mxCell>
                <mxCell id="uCB6otb3zmAJfKVbCcx5-58" value="si exist" style="rhombus;whiteSpace=wrap;html=1;" parent="1" vertex="1">
                    <mxGeometry x="1495" y="1350" width="80" height="80" as="geometry"/>
                </mxCell>
                <mxCell id="uCB6otb3zmAJfKVbCcx5-64" style="edgeStyle=orthogonalEdgeStyle;rounded=0;orthogonalLoop=1;jettySize=auto;html=1;exitX=1;exitY=1;exitDx=0;exitDy=0;fontSize=12;strokeColor=#FF6666;" parent="1" source="uCB6otb3zmAJfKVbCcx5-61" edge="1">
                    <mxGeometry relative="1" as="geometry">
                        <mxPoint x="2740" y="1820" as="targetPoint"/>
                        <Array as="points">
                            <mxPoint x="2570" y="1410"/>
                            <mxPoint x="2570" y="1820"/>
                        </Array>
                    </mxGeometry>
                </mxCell>
                <mxCell id="uCB6otb3zmAJfKVbCcx5-61" value="si exist" style="rhombus;whiteSpace=wrap;html=1;" parent="1" vertex="1">
                    <mxGeometry x="1700" y="1350" width="80" height="80" as="geometry"/>
                </mxCell>
                <mxCell id="uCB6otb3zmAJfKVbCcx5-66" value="OUI" style="text;html=1;strokeColor=none;fillColor=none;align=center;verticalAlign=middle;whiteSpace=wrap;rounded=0;" parent="1" vertex="1">
                    <mxGeometry x="1470" y="1340" width="60" height="30" as="geometry"/>
                </mxCell>
                <mxCell id="uCB6otb3zmAJfKVbCcx5-67" value="OUI" style="text;html=1;strokeColor=none;fillColor=none;align=center;verticalAlign=middle;whiteSpace=wrap;rounded=0;" parent="1" vertex="1">
                    <mxGeometry x="1550" y="1340" width="60" height="30" as="geometry"/>
                </mxCell>
                <mxCell id="uCB6otb3zmAJfKVbCcx5-68" value="OUI" style="text;html=1;strokeColor=none;fillColor=none;align=center;verticalAlign=middle;whiteSpace=wrap;rounded=0;" parent="1" vertex="1">
                    <mxGeometry x="1740" y="1340" width="60" height="30" as="geometry"/>
                </mxCell>
                <mxCell id="uCB6otb3zmAJfKVbCcx5-69" value="NON" style="text;html=1;strokeColor=none;fillColor=none;align=center;verticalAlign=middle;whiteSpace=wrap;rounded=0;" parent="1" vertex="1">
                    <mxGeometry x="1740" y="1410" width="60" height="30" as="geometry"/>
                </mxCell>
                <mxCell id="uCB6otb3zmAJfKVbCcx5-70" value="NON" style="text;html=1;strokeColor=none;fillColor=none;align=center;verticalAlign=middle;whiteSpace=wrap;rounded=0;" parent="1" vertex="1">
                    <mxGeometry x="1470" y="1410" width="60" height="30" as="geometry"/>
                </mxCell>
                <mxCell id="uCB6otb3zmAJfKVbCcx5-76" style="edgeStyle=orthogonalEdgeStyle;rounded=0;orthogonalLoop=1;jettySize=auto;html=1;exitX=0.5;exitY=1;exitDx=0;exitDy=0;entryX=0.5;entryY=0;entryDx=0;entryDy=0;fontSize=12;strokeColor=#FF6666;" parent="1" source="uCB6otb3zmAJfKVbCcx5-73" target="IvrfVeuGX-2x-bHtq6-g-51" edge="1">
                    <mxGeometry relative="1" as="geometry">
                        <Array as="points">
                            <mxPoint x="2480" y="1360"/>
                            <mxPoint x="2978" y="1360"/>
                        </Array>
                    </mxGeometry>
                </mxCell>
                <mxCell id="uCB6otb3zmAJfKVbCcx5-77" style="edgeStyle=orthogonalEdgeStyle;rounded=0;orthogonalLoop=1;jettySize=auto;html=1;exitX=0;exitY=0.5;exitDx=0;exitDy=0;entryX=1;entryY=0.5;entryDx=0;entryDy=0;fontSize=12;strokeColor=#97D077;" parent="1" source="uCB6otb3zmAJfKVbCcx5-73" target="IvrfVeuGX-2x-bHtq6-g-120" edge="1">
                    <mxGeometry relative="1" as="geometry">
                        <Array as="points">
                            <mxPoint x="2170" y="1275"/>
                            <mxPoint x="2170" y="1110"/>
                        </Array>
                    </mxGeometry>
                </mxCell>
                <mxCell id="uCB6otb3zmAJfKVbCcx5-73" value="si exist" style="rhombus;whiteSpace=wrap;html=1;" parent="1" vertex="1">
                    <mxGeometry x="2440" y="1235" width="80" height="80" as="geometry"/>
                </mxCell>
                <mxCell id="uCB6otb3zmAJfKVbCcx5-74" value="OUI" style="text;html=1;strokeColor=none;fillColor=none;align=center;verticalAlign=middle;whiteSpace=wrap;rounded=0;" parent="1" vertex="1">
                    <mxGeometry x="2405" y="1245" width="60" height="30" as="geometry"/>
                </mxCell>
                <mxCell id="uCB6otb3zmAJfKVbCcx5-79" style="edgeStyle=orthogonalEdgeStyle;rounded=0;orthogonalLoop=1;jettySize=auto;html=1;exitX=1;exitY=0;exitDx=0;exitDy=0;fontSize=12;strokeColor=#FF6666;" parent="1" source="uCB6otb3zmAJfKVbCcx5-78" edge="1">
                    <mxGeometry relative="1" as="geometry">
                        <mxPoint x="2540" y="1310.2222222222222" as="targetPoint"/>
                    </mxGeometry>
                </mxCell>
                <mxCell id="uCB6otb3zmAJfKVbCcx5-78" value="NON" style="text;html=1;strokeColor=none;fillColor=none;align=center;verticalAlign=middle;whiteSpace=wrap;rounded=0;" parent="1" vertex="1">
                    <mxGeometry x="2470" y="1310" width="60" height="30" as="geometry"/>
                </mxCell>
                <mxCell id="uCB6otb3zmAJfKVbCcx5-82" style="edgeStyle=orthogonalEdgeStyle;rounded=0;orthogonalLoop=1;jettySize=auto;html=1;exitX=0.5;exitY=0;exitDx=0;exitDy=0;entryX=0.5;entryY=1;entryDx=0;entryDy=0;fontSize=12;strokeColor=#97D077;" parent="1" source="uCB6otb3zmAJfKVbCcx5-80" target="IvrfVeuGX-2x-bHtq6-g-66" edge="1">
                    <mxGeometry relative="1" as="geometry"/>
                </mxCell>
                <mxCell id="uCB6otb3zmAJfKVbCcx5-83" style="edgeStyle=orthogonalEdgeStyle;rounded=0;orthogonalLoop=1;jettySize=auto;html=1;exitX=0;exitY=0.5;exitDx=0;exitDy=0;fontSize=12;strokeColor=#FF6666;" parent="1" source="uCB6otb3zmAJfKVbCcx5-80" edge="1">
                    <mxGeometry relative="1" as="geometry">
                        <mxPoint x="2480" y="1360" as="targetPoint"/>
                        <Array as="points">
                            <mxPoint x="2370" y="1113"/>
                            <mxPoint x="2370" y="1360"/>
                        </Array>
                    </mxGeometry>
                </mxCell>
                <mxCell id="uCB6otb3zmAJfKVbCcx5-80" value="si exist" style="rhombus;whiteSpace=wrap;html=1;" parent="1" vertex="1">
                    <mxGeometry x="2390" y="1072.5" width="80" height="80" as="geometry"/>
                </mxCell>
                <mxCell id="uCB6otb3zmAJfKVbCcx5-88" style="edgeStyle=orthogonalEdgeStyle;rounded=0;orthogonalLoop=1;jettySize=auto;html=1;exitX=0.5;exitY=0;exitDx=0;exitDy=0;entryX=0.5;entryY=1;entryDx=0;entryDy=0;fontSize=12;strokeColor=#97D077;" parent="1" source="uCB6otb3zmAJfKVbCcx5-84" target="IvrfVeuGX-2x-bHtq6-g-68" edge="1">
                    <mxGeometry relative="1" as="geometry"/>
                </mxCell>
                <mxCell id="uCB6otb3zmAJfKVbCcx5-89" style="edgeStyle=orthogonalEdgeStyle;rounded=0;orthogonalLoop=1;jettySize=auto;html=1;exitX=0;exitY=0.5;exitDx=0;exitDy=0;fontSize=12;strokeColor=#FF6666;" parent="1" source="uCB6otb3zmAJfKVbCcx5-84" edge="1">
                    <mxGeometry relative="1" as="geometry">
                        <mxPoint x="2560.076923076923" y="1360.0000000000002" as="targetPoint"/>
                        <Array as="points">
                            <mxPoint x="2560" y="1180"/>
                            <mxPoint x="2560" y="1180"/>
                        </Array>
                    </mxGeometry>
                </mxCell>
                <mxCell id="uCB6otb3zmAJfKVbCcx5-84" value="si exist" style="rhombus;whiteSpace=wrap;html=1;" parent="1" vertex="1">
                    <mxGeometry x="2560" y="1070" width="80" height="80" as="geometry"/>
                </mxCell>
                <mxCell id="uCB6otb3zmAJfKVbCcx5-85" value="OUI" style="text;html=1;strokeColor=none;fillColor=none;align=center;verticalAlign=middle;whiteSpace=wrap;rounded=0;" parent="1" vertex="1">
                    <mxGeometry x="2380" y="1050" width="60" height="30" as="geometry"/>
                </mxCell>
                <mxCell id="uCB6otb3zmAJfKVbCcx5-86" value="NON" style="text;html=1;strokeColor=none;fillColor=none;align=center;verticalAlign=middle;whiteSpace=wrap;rounded=0;" parent="1" vertex="1">
                    <mxGeometry x="2355" y="1120" width="60" height="30" as="geometry"/>
                </mxCell>
                <mxCell id="uCB6otb3zmAJfKVbCcx5-92" style="edgeStyle=orthogonalEdgeStyle;rounded=0;orthogonalLoop=1;jettySize=auto;html=1;exitX=1;exitY=0.5;exitDx=0;exitDy=0;fontSize=12;strokeColor=#FF6666;" parent="1" source="uCB6otb3zmAJfKVbCcx5-90" edge="1">
                    <mxGeometry relative="1" as="geometry">
                        <mxPoint x="2860" y="1360" as="targetPoint"/>
                        <Array as="points">
                            <mxPoint x="2860" y="1120"/>
                            <mxPoint x="2860" y="1360"/>
                        </Array>
                    </mxGeometry>
                </mxCell>
                <mxCell id="uCB6otb3zmAJfKVbCcx5-93" style="edgeStyle=orthogonalEdgeStyle;rounded=0;orthogonalLoop=1;jettySize=auto;html=1;entryX=0.469;entryY=1;entryDx=0;entryDy=0;entryPerimeter=0;fontSize=12;strokeColor=#97D077;" parent="1" source="uCB6otb3zmAJfKVbCcx5-90" target="IvrfVeuGX-2x-bHtq6-g-72" edge="1">
                    <mxGeometry relative="1" as="geometry"/>
                </mxCell>
                <mxCell id="uCB6otb3zmAJfKVbCcx5-90" value="si exist" style="rhombus;whiteSpace=wrap;html=1;" parent="1" vertex="1">
                    <mxGeometry x="2750" y="1080" width="80" height="80" as="geometry"/>
                </mxCell>
                <mxCell id="uCB6otb3zmAJfKVbCcx5-94" value="NON" style="text;html=1;strokeColor=none;fillColor=none;align=center;verticalAlign=middle;whiteSpace=wrap;rounded=0;" parent="1" vertex="1">
                    <mxGeometry x="2800" y="1122.5" width="60" height="30" as="geometry"/>
                </mxCell>
                <mxCell id="uCB6otb3zmAJfKVbCcx5-95" value="NON" style="text;html=1;strokeColor=none;fillColor=none;align=center;verticalAlign=middle;whiteSpace=wrap;rounded=0;" parent="1" vertex="1">
                    <mxGeometry x="2520" y="1120" width="60" height="30" as="geometry"/>
                </mxCell>
                <mxCell id="uCB6otb3zmAJfKVbCcx5-96" value="OUI" style="text;html=1;strokeColor=none;fillColor=none;align=center;verticalAlign=middle;whiteSpace=wrap;rounded=0;" parent="1" vertex="1">
                    <mxGeometry x="2730" y="1050" width="60" height="30" as="geometry"/>
                </mxCell>
                <mxCell id="uCB6otb3zmAJfKVbCcx5-97" value="OUI" style="text;html=1;strokeColor=none;fillColor=none;align=center;verticalAlign=middle;whiteSpace=wrap;rounded=0;" parent="1" vertex="1">
                    <mxGeometry x="2550" y="1050" width="60" height="30" as="geometry"/>
                </mxCell>
                <mxCell id="uCB6otb3zmAJfKVbCcx5-101" style="edgeStyle=orthogonalEdgeStyle;rounded=0;orthogonalLoop=1;jettySize=auto;html=1;exitX=0.5;exitY=0;exitDx=0;exitDy=0;entryX=0.5;entryY=1;entryDx=0;entryDy=0;fontSize=12;strokeColor=#97D077;" parent="1" source="uCB6otb3zmAJfKVbCcx5-98" target="IvrfVeuGX-2x-bHtq6-g-74" edge="1">
                    <mxGeometry relative="1" as="geometry"/>
                </mxCell>
                <mxCell id="uCB6otb3zmAJfKVbCcx5-102" style="edgeStyle=orthogonalEdgeStyle;rounded=0;orthogonalLoop=1;jettySize=auto;html=1;exitX=0;exitY=0.5;exitDx=0;exitDy=0;fontSize=12;strokeColor=#FF6666;" parent="1" source="uCB6otb3zmAJfKVbCcx5-98" edge="1">
                    <mxGeometry relative="1" as="geometry">
                        <mxPoint x="2890" y="1360.0000000000002" as="targetPoint"/>
                    </mxGeometry>
                </mxCell>
                <mxCell id="uCB6otb3zmAJfKVbCcx5-98" value="si exist" style="rhombus;whiteSpace=wrap;html=1;" parent="1" vertex="1">
                    <mxGeometry x="2910" y="1080" width="80" height="80" as="geometry"/>
                </mxCell>
                <mxCell id="uCB6otb3zmAJfKVbCcx5-103" style="edgeStyle=orthogonalEdgeStyle;rounded=0;orthogonalLoop=1;jettySize=auto;html=1;fontSize=12;strokeColor=#97D077;" parent="1" source="uCB6otb3zmAJfKVbCcx5-99" edge="1">
                    <mxGeometry relative="1" as="geometry">
                        <mxPoint x="3120" y="990" as="targetPoint"/>
                    </mxGeometry>
                </mxCell>
                <mxCell id="uCB6otb3zmAJfKVbCcx5-106" style="edgeStyle=orthogonalEdgeStyle;rounded=0;orthogonalLoop=1;jettySize=auto;html=1;fontSize=12;strokeColor=#FF6666;exitX=0;exitY=0.5;exitDx=0;exitDy=0;entryX=1;entryY=0;entryDx=0;entryDy=0;" parent="1" source="uCB6otb3zmAJfKVbCcx5-99" target="IvrfVeuGX-2x-bHtq6-g-51" edge="1">
                    <mxGeometry relative="1" as="geometry">
                        <Array as="points">
                            <mxPoint x="3006" y="1120"/>
                        </Array>
                    </mxGeometry>
                </mxCell>
                <mxCell id="uCB6otb3zmAJfKVbCcx5-99" value="si exist" style="rhombus;whiteSpace=wrap;html=1;" parent="1" vertex="1">
                    <mxGeometry x="3080" y="1080" width="80" height="80" as="geometry"/>
                </mxCell>
                <mxCell id="uCB6otb3zmAJfKVbCcx5-107" value="NON" style="text;html=1;strokeColor=none;fillColor=none;align=center;verticalAlign=middle;whiteSpace=wrap;rounded=0;" parent="1" vertex="1">
                    <mxGeometry x="2880" y="1130" width="60" height="30" as="geometry"/>
                </mxCell>
                <mxCell id="uCB6otb3zmAJfKVbCcx5-108" value="NON" style="text;html=1;strokeColor=none;fillColor=none;align=center;verticalAlign=middle;whiteSpace=wrap;rounded=0;" parent="1" vertex="1">
                    <mxGeometry x="3040" y="1122.5" width="60" height="30" as="geometry"/>
                </mxCell>
                <mxCell id="uCB6otb3zmAJfKVbCcx5-109" value="OUI" style="text;html=1;strokeColor=none;fillColor=none;align=center;verticalAlign=middle;whiteSpace=wrap;rounded=0;" parent="1" vertex="1">
                    <mxGeometry x="2893" y="1050" width="60" height="30" as="geometry"/>
                </mxCell>
                <mxCell id="uCB6otb3zmAJfKVbCcx5-110" value="OUI" style="text;html=1;strokeColor=none;fillColor=none;align=center;verticalAlign=middle;whiteSpace=wrap;rounded=0;" parent="1" vertex="1">
                    <mxGeometry x="3070" y="1050" width="60" height="30" as="geometry"/>
                </mxCell>
                <mxCell id="uCB6otb3zmAJfKVbCcx5-120" style="edgeStyle=orthogonalEdgeStyle;rounded=0;orthogonalLoop=1;jettySize=auto;html=1;entryX=0.5;entryY=1;entryDx=0;entryDy=0;fontSize=12;strokeColor=#97D077;" parent="1" source="uCB6otb3zmAJfKVbCcx5-112" target="IvrfVeuGX-2x-bHtq6-g-76" edge="1">
                    <mxGeometry relative="1" as="geometry"/>
                </mxCell>
                <mxCell id="uCB6otb3zmAJfKVbCcx5-129" style="edgeStyle=orthogonalEdgeStyle;rounded=0;orthogonalLoop=1;jettySize=auto;html=1;exitX=0;exitY=0.5;exitDx=0;exitDy=0;entryX=0.924;entryY=0.382;entryDx=0;entryDy=0;entryPerimeter=0;fontSize=12;strokeColor=#FF6666;" parent="1" source="uCB6otb3zmAJfKVbCcx5-112" target="IvrfVeuGX-2x-bHtq6-g-51" edge="1">
                    <mxGeometry relative="1" as="geometry">
                        <Array as="points">
                            <mxPoint x="3180" y="1125"/>
                            <mxPoint x="3180" y="1320"/>
                            <mxPoint x="3026" y="1320"/>
                        </Array>
                    </mxGeometry>
                </mxCell>
                <mxCell id="uCB6otb3zmAJfKVbCcx5-112" value="si exist" style="rhombus;whiteSpace=wrap;html=1;" parent="1" vertex="1">
                    <mxGeometry x="3265" y="1085" width="80" height="80" as="geometry"/>
                </mxCell>
                <mxCell id="uCB6otb3zmAJfKVbCcx5-113" value="NON" style="text;html=1;strokeColor=none;fillColor=none;align=center;verticalAlign=middle;whiteSpace=wrap;rounded=0;" parent="1" vertex="1">
                    <mxGeometry x="3230" y="1137.5" width="50" height="12.5" as="geometry"/>
                </mxCell>
                <mxCell id="uCB6otb3zmAJfKVbCcx5-114" value="OUI" style="text;html=1;strokeColor=none;fillColor=none;align=center;verticalAlign=middle;whiteSpace=wrap;rounded=0;" parent="1" vertex="1">
                    <mxGeometry x="3250" y="1055" width="60" height="30" as="geometry"/>
                </mxCell>
                <mxCell id="uCB6otb3zmAJfKVbCcx5-127" style="edgeStyle=orthogonalEdgeStyle;rounded=0;orthogonalLoop=1;jettySize=auto;html=1;entryX=0.43;entryY=0.1;entryDx=0;entryDy=0;entryPerimeter=0;fontSize=12;strokeColor=#97D077;" parent="1" source="uCB6otb3zmAJfKVbCcx5-122" target="IvrfVeuGX-2x-bHtq6-g-175" edge="1">
                    <mxGeometry relative="1" as="geometry"/>
                </mxCell>
                <mxCell id="uCB6otb3zmAJfKVbCcx5-128" style="edgeStyle=orthogonalEdgeStyle;rounded=0;orthogonalLoop=1;jettySize=auto;html=1;exitX=1;exitY=0;exitDx=0;exitDy=0;fontSize=12;strokeColor=#FF6666;" parent="1" source="uCB6otb3zmAJfKVbCcx5-122" edge="1">
                    <mxGeometry relative="1" as="geometry">
                        <mxPoint x="-520" y="1050" as="targetPoint"/>
                        <Array as="points">
                            <mxPoint x="-520" y="1328"/>
                        </Array>
                    </mxGeometry>
                </mxCell>
                <mxCell id="uCB6otb3zmAJfKVbCcx5-122" value="Si exist" style="rhombus;whiteSpace=wrap;html=1;" parent="1" vertex="1">
                    <mxGeometry x="-639" y="1300" width="110" height="110" as="geometry"/>
                </mxCell>
                <mxCell id="uCB6otb3zmAJfKVbCcx5-123" value="OUI" style="text;html=1;strokeColor=none;fillColor=none;align=center;verticalAlign=middle;whiteSpace=wrap;rounded=0;" parent="1" vertex="1">
                    <mxGeometry x="-570" y="1380" width="60" height="30" as="geometry"/>
                </mxCell>
                <mxCell id="uCB6otb3zmAJfKVbCcx5-124" value="NON" style="text;html=1;strokeColor=none;fillColor=none;align=center;verticalAlign=middle;whiteSpace=wrap;rounded=0;" parent="1" vertex="1">
                    <mxGeometry x="-529" y="1290" width="60" height="30" as="geometry"/>
                </mxCell>
                <mxCell id="uCB6otb3zmAJfKVbCcx5-136" style="edgeStyle=orthogonalEdgeStyle;rounded=0;orthogonalLoop=1;jettySize=auto;html=1;entryX=0;entryY=1;entryDx=0;entryDy=0;fontSize=12;strokeColor=#FF6666;exitX=0;exitY=0.5;exitDx=0;exitDy=0;" parent="1" source="uCB6otb3zmAJfKVbCcx5-134" target="IvrfVeuGX-2x-bHtq6-g-142" edge="1">
                    <mxGeometry relative="1" as="geometry"/>
                </mxCell>
                <mxCell id="uCB6otb3zmAJfKVbCcx5-137" style="edgeStyle=orthogonalEdgeStyle;rounded=0;orthogonalLoop=1;jettySize=auto;html=1;entryX=0.5;entryY=1;entryDx=0;entryDy=0;fontSize=12;strokeColor=#97D077;" parent="1" source="uCB6otb3zmAJfKVbCcx5-134" target="IvrfVeuGX-2x-bHtq6-g-144" edge="1">
                    <mxGeometry relative="1" as="geometry"/>
                </mxCell>
                <mxCell id="uCB6otb3zmAJfKVbCcx5-134" value="si exist" style="rhombus;whiteSpace=wrap;html=1;" parent="1" vertex="1">
                    <mxGeometry x="1860" y="880" width="80" height="80" as="geometry"/>
                </mxCell>
                <mxCell id="uCB6otb3zmAJfKVbCcx5-140" style="edgeStyle=orthogonalEdgeStyle;rounded=0;orthogonalLoop=1;jettySize=auto;html=1;entryX=0.5;entryY=1;entryDx=0;entryDy=0;fontSize=12;strokeColor=#97D077;" parent="1" source="uCB6otb3zmAJfKVbCcx5-138" target="IvrfVeuGX-2x-bHtq6-g-147" edge="1">
                    <mxGeometry relative="1" as="geometry"/>
                </mxCell>
                <mxCell id="uCB6otb3zmAJfKVbCcx5-141" style="edgeStyle=orthogonalEdgeStyle;rounded=0;orthogonalLoop=1;jettySize=auto;html=1;exitX=0;exitY=1;exitDx=0;exitDy=0;entryX=1;entryY=0.5;entryDx=0;entryDy=0;fontSize=12;strokeColor=#FF6666;" parent="1" source="uCB6otb3zmAJfKVbCcx5-138" target="IvrfVeuGX-2x-bHtq6-g-142" edge="1">
                    <mxGeometry relative="1" as="geometry"/>
                </mxCell>
                <mxCell id="uCB6otb3zmAJfKVbCcx5-138" value="si exist" style="rhombus;whiteSpace=wrap;html=1;" parent="1" vertex="1">
                    <mxGeometry x="2080" y="880" width="80" height="80" as="geometry"/>
                </mxCell>
                <mxCell id="uCB6otb3zmAJfKVbCcx5-142" value="OUI" style="text;html=1;strokeColor=none;fillColor=none;align=center;verticalAlign=middle;whiteSpace=wrap;rounded=0;" parent="1" vertex="1">
                    <mxGeometry x="1850" y="860" width="60" height="30" as="geometry"/>
                </mxCell>
                <mxCell id="uCB6otb3zmAJfKVbCcx5-143" value="OUI" style="text;html=1;strokeColor=none;fillColor=none;align=center;verticalAlign=middle;whiteSpace=wrap;rounded=0;" parent="1" vertex="1">
                    <mxGeometry x="2060" y="860" width="60" height="30" as="geometry"/>
                </mxCell>
                <mxCell id="uCB6otb3zmAJfKVbCcx5-144" value="NON" style="text;html=1;strokeColor=none;fillColor=none;align=center;verticalAlign=middle;whiteSpace=wrap;rounded=0;" parent="1" vertex="1">
                    <mxGeometry x="1830" y="930" width="60" height="30" as="geometry"/>
                </mxCell>
                <mxCell id="uCB6otb3zmAJfKVbCcx5-145" value="NON" style="text;html=1;strokeColor=none;fillColor=none;align=center;verticalAlign=middle;whiteSpace=wrap;rounded=0;" parent="1" vertex="1">
                    <mxGeometry x="2070" y="940" width="60" height="30" as="geometry"/>
                </mxCell>
                <mxCell id="ED3J-dWW6mjkObuf-_qW-5" style="edgeStyle=orthogonalEdgeStyle;rounded=0;orthogonalLoop=1;jettySize=auto;html=1;entryX=0;entryY=0.5;entryDx=0;entryDy=0;strokeColor=#FF6666;" parent="1" source="ED3J-dWW6mjkObuf-_qW-1" target="uCB6otb3zmAJfKVbCcx5-39" edge="1">
                    <mxGeometry relative="1" as="geometry">
                        <Array as="points">
                            <mxPoint x="800" y="1055"/>
                        </Array>
                    </mxGeometry>
                </mxCell>
                <mxCell id="ED3J-dWW6mjkObuf-_qW-12" style="edgeStyle=orthogonalEdgeStyle;rounded=0;orthogonalLoop=1;jettySize=auto;html=1;exitX=0.5;exitY=1;exitDx=0;exitDy=0;entryX=0;entryY=0.5;entryDx=0;entryDy=0;strokeColor=#97D077;" parent="1" source="ED3J-dWW6mjkObuf-_qW-1" target="IvrfVeuGX-2x-bHtq6-g-47" edge="1">
                    <mxGeometry relative="1" as="geometry"/>
                </mxCell>
                <mxCell id="ED3J-dWW6mjkObuf-_qW-1" value="If data is valid" style="rhombus;whiteSpace=wrap;html=1;" parent="1" vertex="1">
                    <mxGeometry x="855" y="1330" width="110" height="90" as="geometry"/>
                </mxCell>
                <mxCell id="ED3J-dWW6mjkObuf-_qW-6" value="NON" style="text;html=1;strokeColor=none;fillColor=none;align=center;verticalAlign=middle;whiteSpace=wrap;rounded=0;" parent="1" vertex="1">
                    <mxGeometry x="820" y="1340" width="60" height="30" as="geometry"/>
                </mxCell>
                <mxCell id="ED3J-dWW6mjkObuf-_qW-7" value="OUI" style="text;html=1;strokeColor=none;fillColor=none;align=center;verticalAlign=middle;whiteSpace=wrap;rounded=0;" parent="1" vertex="1">
                    <mxGeometry x="860" y="1407.5" width="60" height="30" as="geometry"/>
                </mxCell>
                <mxCell id="ED3J-dWW6mjkObuf-_qW-22" style="edgeStyle=orthogonalEdgeStyle;rounded=0;orthogonalLoop=1;jettySize=auto;html=1;exitX=0;exitY=0.5;exitDx=0;exitDy=0;entryX=0.06;entryY=-0.009;entryDx=0;entryDy=0;entryPerimeter=0;strokeColor=#FF6666;" parent="1" source="ED3J-dWW6mjkObuf-_qW-8" target="IvrfVeuGX-2x-bHtq6-g-97" edge="1">
                    <mxGeometry relative="1" as="geometry"/>
                </mxCell>
                <mxCell id="ED3J-dWW6mjkObuf-_qW-8" value="si le format est valide" style="rhombus;whiteSpace=wrap;html=1;" parent="1" vertex="1">
                    <mxGeometry x="1400" y="995" width="100" height="90" as="geometry"/>
                </mxCell>
                <mxCell id="ED3J-dWW6mjkObuf-_qW-9" value="" style="edgeStyle=orthogonalEdgeStyle;rounded=0;orthogonalLoop=1;jettySize=auto;html=1;exitX=0.5;exitY=0;exitDx=0;exitDy=0;entryX=0.5;entryY=1;entryDx=0;entryDy=0;endArrow=none;" parent="1" source="IvrfVeuGX-2x-bHtq6-g-97" target="ED3J-dWW6mjkObuf-_qW-8" edge="1">
                    <mxGeometry relative="1" as="geometry">
                        <mxPoint x="1450" y="1200" as="sourcePoint"/>
                        <mxPoint x="1450" y="910" as="targetPoint"/>
                    </mxGeometry>
                </mxCell>
                <mxCell id="ED3J-dWW6mjkObuf-_qW-18" style="edgeStyle=orthogonalEdgeStyle;rounded=0;orthogonalLoop=1;jettySize=auto;html=1;entryX=1;entryY=0.5;entryDx=0;entryDy=0;strokeColor=#FF6666;" parent="1" source="ED3J-dWW6mjkObuf-_qW-13" target="uCB6otb3zmAJfKVbCcx5-39" edge="1">
                    <mxGeometry relative="1" as="geometry">
                        <Array as="points">
                            <mxPoint x="1140" y="1375"/>
                            <mxPoint x="1140" y="1055"/>
                        </Array>
                    </mxGeometry>
                </mxCell>
                <mxCell id="ED3J-dWW6mjkObuf-_qW-13" value="If data is valid" style="rhombus;whiteSpace=wrap;html=1;" parent="1" vertex="1">
                    <mxGeometry x="1010" y="1330" width="100" height="90" as="geometry"/>
                </mxCell>
                <mxCell id="ED3J-dWW6mjkObuf-_qW-20" value="OUI" style="text;html=1;strokeColor=none;fillColor=none;align=center;verticalAlign=middle;whiteSpace=wrap;rounded=0;" parent="1" vertex="1">
                    <mxGeometry x="1010" y="1407.5" width="60" height="30" as="geometry"/>
                </mxCell>
                <mxCell id="ED3J-dWW6mjkObuf-_qW-21" value="NON" style="text;html=1;strokeColor=none;fillColor=none;align=center;verticalAlign=middle;whiteSpace=wrap;rounded=0;" parent="1" vertex="1">
                    <mxGeometry x="1090" y="1340" width="60" height="30" as="geometry"/>
                </mxCell>
                <mxCell id="ED3J-dWW6mjkObuf-_qW-23" value="OUI" style="text;html=1;strokeColor=none;fillColor=none;align=center;verticalAlign=middle;whiteSpace=wrap;rounded=0;" parent="1" vertex="1">
                    <mxGeometry x="1400" y="965" width="60" height="30" as="geometry"/>
                </mxCell>
                <mxCell id="ED3J-dWW6mjkObuf-_qW-24" value="NON" style="text;html=1;strokeColor=none;fillColor=none;align=center;verticalAlign=middle;whiteSpace=wrap;rounded=0;" parent="1" vertex="1">
                    <mxGeometry x="1390" y="1060" width="60" height="30" as="geometry"/>
                </mxCell>
                <mxCell id="ED3J-dWW6mjkObuf-_qW-27" style="edgeStyle=orthogonalEdgeStyle;rounded=0;orthogonalLoop=1;jettySize=auto;html=1;strokeColor=#FF6666;entryX=0;entryY=0.5;entryDx=0;entryDy=0;exitX=0;exitY=1;exitDx=0;exitDy=0;" parent="1" source="ED3J-dWW6mjkObuf-_qW-25" target="IvrfVeuGX-2x-bHtq6-g-99" edge="1">
                    <mxGeometry relative="1" as="geometry">
                        <Array as="points">
                            <mxPoint x="1540" y="913"/>
                            <mxPoint x="1540" y="1110"/>
                        </Array>
                    </mxGeometry>
                </mxCell>
                <mxCell id="ED3J-dWW6mjkObuf-_qW-25" value="si le format est valide" style="rhombus;whiteSpace=wrap;html=1;" parent="1" vertex="1">
                    <mxGeometry x="1590" y="845" width="100" height="90" as="geometry"/>
                </mxCell>
                <mxCell id="ED3J-dWW6mjkObuf-_qW-28" value="OUI" style="text;html=1;strokeColor=none;fillColor=none;align=center;verticalAlign=middle;whiteSpace=wrap;rounded=0;" parent="1" vertex="1">
                    <mxGeometry x="1560" y="860" width="60" height="30" as="geometry"/>
                </mxCell>
                <mxCell id="ED3J-dWW6mjkObuf-_qW-29" value="NON" style="text;html=1;strokeColor=none;fillColor=none;align=center;verticalAlign=middle;whiteSpace=wrap;rounded=0;" parent="1" vertex="1">
                    <mxGeometry x="1575" y="905" width="60" height="30" as="geometry"/>
                </mxCell>
                <mxCell id="ED3J-dWW6mjkObuf-_qW-36" style="edgeStyle=orthogonalEdgeStyle;rounded=0;orthogonalLoop=1;jettySize=auto;html=1;entryX=0.5;entryY=1;entryDx=0;entryDy=0;strokeColor=#97D077;strokeWidth=2;" parent="1" source="ED3J-dWW6mjkObuf-_qW-32" target="IvrfVeuGX-2x-bHtq6-g-78" edge="1">
                    <mxGeometry relative="1" as="geometry"/>
                </mxCell>
                <mxCell id="ED3J-dWW6mjkObuf-_qW-41" style="edgeStyle=orthogonalEdgeStyle;rounded=0;orthogonalLoop=1;jettySize=auto;html=1;entryX=0.5;entryY=0;entryDx=0;entryDy=0;strokeColor=#FF6666;strokeWidth=2;startArrow=none;exitX=0.5;exitY=1;exitDx=0;exitDy=0;" parent="1" source="ED3J-dWW6mjkObuf-_qW-32" target="IvrfVeuGX-2x-bHtq6-g-54" edge="1">
                    <mxGeometry relative="1" as="geometry">
                        <mxPoint x="2687.5294117647063" y="890" as="sourcePoint"/>
                    </mxGeometry>
                </mxCell>
                <mxCell id="ED3J-dWW6mjkObuf-_qW-32" value="If data is valid" style="rhombus;whiteSpace=wrap;html=1;" parent="1" vertex="1">
                    <mxGeometry x="2600" y="790" width="175" height="70" as="geometry"/>
                </mxCell>
                <mxCell id="ED3J-dWW6mjkObuf-_qW-43" value="" style="edgeStyle=orthogonalEdgeStyle;rounded=0;orthogonalLoop=1;jettySize=auto;html=1;entryX=0.5;entryY=0;entryDx=0;entryDy=0;strokeColor=#FF6666;strokeWidth=2;endArrow=none;" parent="1" source="ED3J-dWW6mjkObuf-_qW-32" edge="1">
                    <mxGeometry relative="1" as="geometry">
                        <mxPoint x="2687.5294117647063" y="859.9882352941174" as="sourcePoint"/>
                        <mxPoint x="2687.5" y="860" as="targetPoint"/>
                        <Array as="points">
                            <mxPoint x="2710" y="860"/>
                        </Array>
                    </mxGeometry>
                </mxCell>
                <mxCell id="ED3J-dWW6mjkObuf-_qW-44" value="NON" style="text;html=1;strokeColor=none;fillColor=none;align=center;verticalAlign=middle;whiteSpace=wrap;rounded=0;" parent="1" vertex="1">
                    <mxGeometry x="2670" y="850" width="60" height="30" as="geometry"/>
                </mxCell>
                <mxCell id="ED3J-dWW6mjkObuf-_qW-47" value="OUI" style="text;html=1;strokeColor=none;fillColor=none;align=center;verticalAlign=middle;whiteSpace=wrap;rounded=0;" parent="1" vertex="1">
                    <mxGeometry x="2680" y="767.5" width="60" height="30" as="geometry"/>
                </mxCell>
                <mxCell id="tfg6szfgYwZAn6ZmmZ_o-3" style="edgeStyle=orthogonalEdgeStyle;rounded=0;orthogonalLoop=1;jettySize=auto;html=1;exitX=0.5;exitY=0;exitDx=0;exitDy=0;entryX=0;entryY=0.75;entryDx=0;entryDy=0;" parent="1" source="tfg6szfgYwZAn6ZmmZ_o-1" target="2" edge="1">
                    <mxGeometry relative="1" as="geometry">
                        <mxPoint x="1150" y="695" as="targetPoint"/>
                    </mxGeometry>
                </mxCell>
                <mxCell id="tfg6szfgYwZAn6ZmmZ_o-1" value="Consulter mon status" style="rounded=1;whiteSpace=wrap;html=1;align=center;" parent="1" vertex="1">
                    <mxGeometry x="780" y="730" width="120" height="60" as="geometry"/>
                </mxCell>
                <mxCell id="2" value="Profil Utilisateur" style="rounded=0;whiteSpace=wrap;html=1;glass=1;fillColor=#99FFCC;" vertex="1" parent="1">
                    <mxGeometry x="1180" y="635" width="150" height="80" as="geometry"/>
                </mxCell>
                <mxCell id="5" style="edgeStyle=none;html=1;entryX=1;entryY=0.5;entryDx=0;entryDy=0;" edge="1" parent="1" source="3" target="IvrfVeuGX-2x-bHtq6-g-164">
                    <mxGeometry relative="1" as="geometry"/>
                </mxCell>
                <mxCell id="3" value="Liste Offres de stages" style="rounded=0;whiteSpace=wrap;html=1;glass=1;fillColor=#99FFCC;" vertex="1" parent="1">
                    <mxGeometry x="-350" y="670" width="145" height="82.5" as="geometry"/>
                </mxCell>
                <mxCell id="6" value="Détails d'une offre de stage" style="rounded=0;whiteSpace=wrap;html=1;glass=1;fillColor=#99FFCC;" vertex="1" parent="1">
                    <mxGeometry x="-837.5" y="965" width="145" height="82.5" as="geometry"/>
                </mxCell>
            </root>
        </mxGraphModel>
    </diagram>
</mxfile>